G04 Layer_Color=16711935*
%FSLAX25Y25*%
%MOIN*%
G70*
G01*
G75*
%ADD21R,0.06800X0.06800*%
%ADD22C,0.06800*%
%ADD42C,0.00800*%
%ADD43R,0.08000X0.08000*%
%ADD44C,0.08000*%
%ADD45C,0.07000*%
%ADD46C,0.06312*%
%ADD47R,0.07600X0.07600*%
%ADD48C,0.07600*%
%ADD49R,0.12800X0.12800*%
%ADD50C,0.12800*%
%ADD51R,0.06706X0.06706*%
%ADD52C,0.06706*%
%ADD53R,0.08000X0.08000*%
%ADD54O,0.04737X0.08674*%
%ADD55O,0.04737X0.08674*%
%ADD56R,0.06706X0.06706*%
%ADD57R,0.07000X0.07000*%
%ADD58C,0.05800*%
D21*
X71300Y20000D02*
D03*
Y242500D02*
D03*
D22*
X57500Y20000D02*
D03*
Y242500D02*
D03*
D42*
X22500Y22500D02*
D03*
Y240000D02*
D03*
X8858Y144949D02*
D03*
Y117390D02*
D03*
X115200Y28800D02*
D03*
Y232800D02*
D03*
X284500Y9000D02*
D03*
X312059D02*
D03*
X402500Y240000D02*
D03*
Y22500D02*
D03*
D43*
X40000Y151839D02*
D03*
D44*
X51811D02*
D03*
X40000Y138059D02*
D03*
X51811D02*
D03*
X40000Y124280D02*
D03*
X51811D02*
D03*
X40000Y110500D02*
D03*
X51811D02*
D03*
X277610Y51953D02*
D03*
X291390Y40142D02*
D03*
Y51953D02*
D03*
X305169Y40142D02*
D03*
Y51953D02*
D03*
X318949Y40142D02*
D03*
Y51953D02*
D03*
D45*
X182500Y200000D02*
D03*
Y220000D02*
D03*
X197500Y105000D02*
D03*
Y125000D02*
D03*
X20000Y52500D02*
D03*
Y72500D02*
D03*
X342500Y160000D02*
D03*
Y180000D02*
D03*
X216500Y173000D02*
D03*
Y193000D02*
D03*
X197000Y35000D02*
D03*
Y15000D02*
D03*
X34000Y173500D02*
D03*
X54000D02*
D03*
X198000Y144500D02*
D03*
Y164500D02*
D03*
X348500Y116500D02*
D03*
X328500D02*
D03*
X345000Y127500D02*
D03*
Y147500D02*
D03*
X343500Y217500D02*
D03*
Y197500D02*
D03*
X329000Y217500D02*
D03*
Y197500D02*
D03*
X278500Y67500D02*
D03*
X258500D02*
D03*
X345000Y237500D02*
D03*
X325000D02*
D03*
X402500Y200000D02*
D03*
X392500D02*
D03*
X382500D02*
D03*
X372500D02*
D03*
X362500D02*
D03*
D46*
X192500Y232500D02*
D03*
X152500D02*
D03*
X185000Y247500D02*
D03*
X145000D02*
D03*
X230000Y193000D02*
D03*
Y153000D02*
D03*
X20000Y215000D02*
D03*
Y175000D02*
D03*
X182000Y15000D02*
D03*
Y55000D02*
D03*
X254500D02*
D03*
Y15000D02*
D03*
X251500Y83000D02*
D03*
X291500D02*
D03*
X182500Y145000D02*
D03*
Y185000D02*
D03*
Y135000D02*
D03*
Y95000D02*
D03*
X329000Y167500D02*
D03*
Y127500D02*
D03*
X347500Y87500D02*
D03*
X307500D02*
D03*
X355000Y212500D02*
D03*
Y252500D02*
D03*
X295000Y110000D02*
D03*
X255000D02*
D03*
X366500Y252500D02*
D03*
Y212500D02*
D03*
X417000D02*
D03*
X377000D02*
D03*
X214000Y98000D02*
D03*
X254000D02*
D03*
X344500Y68000D02*
D03*
X304500D02*
D03*
D47*
X251000Y237500D02*
D03*
D48*
Y227500D02*
D03*
Y217500D02*
D03*
Y207500D02*
D03*
Y197500D02*
D03*
Y187500D02*
D03*
Y177500D02*
D03*
Y167500D02*
D03*
Y157500D02*
D03*
Y147500D02*
D03*
Y137500D02*
D03*
Y127500D02*
D03*
X311000D02*
D03*
Y137500D02*
D03*
Y147500D02*
D03*
Y157500D02*
D03*
Y167500D02*
D03*
Y177500D02*
D03*
Y187500D02*
D03*
Y197500D02*
D03*
Y207500D02*
D03*
Y217500D02*
D03*
Y227500D02*
D03*
Y237500D02*
D03*
D49*
X37500Y212000D02*
D03*
D50*
Y192000D02*
D03*
Y49500D02*
D03*
Y69500D02*
D03*
D51*
X202500Y217146D02*
D03*
X215000D02*
D03*
X227500Y247854D02*
D03*
X232000Y137500D02*
D03*
X200000Y176146D02*
D03*
D52*
X202500Y247854D02*
D03*
X215000D02*
D03*
X227500Y217146D02*
D03*
X232000Y127500D02*
D03*
X200000Y206854D02*
D03*
X212000Y75000D02*
D03*
Y65000D02*
D03*
Y55000D02*
D03*
Y45000D02*
D03*
Y35000D02*
D03*
Y25000D02*
D03*
Y15000D02*
D03*
X242000Y75000D02*
D03*
Y65000D02*
D03*
Y55000D02*
D03*
Y45000D02*
D03*
Y35000D02*
D03*
Y25000D02*
D03*
D53*
X277610Y40142D02*
D03*
D54*
X317500Y105000D02*
D03*
X307500D02*
D03*
D55*
X312500D02*
D03*
D56*
X242000Y15000D02*
D03*
D57*
X412500Y200000D02*
D03*
D58*
X205600Y156200D02*
D03*
X240000Y194000D02*
D03*
M02*
