G04 Layer_Physical_Order=2*
G04 Layer_Color=16711680*
%FSLAX25Y25*%
%MOIN*%
G70*
G01*
G75*
%ADD12C,0.01500*%
%ADD14C,0.04000*%
%ADD16C,0.04500*%
%ADD17R,0.07200X0.07200*%
%ADD18C,0.07200*%
%ADD19C,0.06200*%
%ADD20C,0.05512*%
%ADD21R,0.06800X0.06800*%
%ADD22C,0.06800*%
%ADD23R,0.06000X0.06000*%
%ADD24C,0.06000*%
%ADD25R,0.12000X0.12000*%
%ADD26C,0.12000*%
%ADD27R,0.05905X0.05905*%
%ADD28C,0.05905*%
%ADD29R,0.07200X0.07200*%
%ADD30O,0.03937X0.07874*%
%ADD31O,0.03937X0.07874*%
%ADD32R,0.05905X0.05905*%
%ADD33R,0.06200X0.06200*%
%ADD34C,0.05000*%
%ADD35C,0.03500*%
G36*
X423471Y82500D02*
Y50000D01*
Y1529D01*
X312926D01*
X312901Y2029D01*
X313335Y2072D01*
X313431Y2101D01*
X313431Y2101D01*
X313531Y2111D01*
X314662Y2454D01*
X314751Y2502D01*
X314847Y2531D01*
X315889Y3088D01*
X315967Y3152D01*
X316055Y3199D01*
X316969Y3949D01*
X317033Y4026D01*
X317033Y4026D01*
X317110Y4090D01*
X317860Y5004D01*
X317907Y5092D01*
X317971Y5170D01*
X318528Y6212D01*
X318557Y6308D01*
X318605Y6397D01*
X318948Y7528D01*
X318958Y7628D01*
X318958Y7628D01*
X318987Y7724D01*
X319103Y8900D01*
X319093Y9000D01*
X319103Y9100D01*
X318987Y10276D01*
X318958Y10372D01*
X318958Y10372D01*
X318948Y10472D01*
X318605Y11603D01*
X318558Y11692D01*
X318528Y11788D01*
X317971Y12830D01*
X317907Y12908D01*
X317860Y12996D01*
X317110Y13910D01*
X317033Y13974D01*
X317033Y13974D01*
X316969Y14051D01*
X316055Y14801D01*
X315967Y14848D01*
X315889Y14912D01*
X314847Y15469D01*
X314751Y15498D01*
X314662Y15546D01*
X313531Y15889D01*
X313431Y15899D01*
X313431Y15899D01*
X313335Y15928D01*
X312159Y16044D01*
X312109Y16039D01*
X312059Y16049D01*
X312009Y16039D01*
X311959Y16044D01*
X310783Y15928D01*
X310687Y15899D01*
X310687Y15899D01*
X310587Y15889D01*
X309456Y15546D01*
X309367Y15498D01*
X309271Y15469D01*
X308229Y14912D01*
X308151Y14848D01*
X308063Y14801D01*
X307149Y14051D01*
X307085Y13974D01*
X307085Y13974D01*
X307008Y13910D01*
X306258Y12996D01*
X306211Y12908D01*
X306147Y12830D01*
X305590Y11788D01*
X305561Y11692D01*
X305513Y11603D01*
X305170Y10472D01*
X305160Y10372D01*
X305160Y10372D01*
X305131Y10276D01*
X305015Y9100D01*
X305025Y9000D01*
X305015Y8900D01*
X305131Y7724D01*
X305160Y7628D01*
X305160Y7628D01*
X305170Y7528D01*
X305513Y6397D01*
X305561Y6308D01*
X305590Y6212D01*
X306147Y5170D01*
X306211Y5092D01*
X306258Y5004D01*
X307008Y4090D01*
X307085Y4026D01*
X307085Y4026D01*
X307149Y3949D01*
X308063Y3199D01*
X308151Y3152D01*
X308229Y3088D01*
X309271Y2531D01*
X309367Y2502D01*
X309456Y2454D01*
X310587Y2111D01*
X310687Y2101D01*
X310687Y2101D01*
X310783Y2072D01*
X311217Y2029D01*
X311192Y1529D01*
X285367D01*
X285342Y2029D01*
X285776Y2072D01*
X285872Y2101D01*
X285872Y2101D01*
X285972Y2111D01*
X287103Y2454D01*
X287192Y2502D01*
X287288Y2531D01*
X288330Y3088D01*
X288408Y3152D01*
X288496Y3199D01*
X289410Y3949D01*
X289474Y4026D01*
X289474Y4026D01*
X289551Y4090D01*
X290301Y5004D01*
X290348Y5092D01*
X290412Y5170D01*
X290969Y6212D01*
X290998Y6308D01*
X291046Y6397D01*
X291389Y7528D01*
X291399Y7628D01*
X291399Y7628D01*
X291428Y7724D01*
X291544Y8900D01*
X291534Y9000D01*
X291544Y9100D01*
X291428Y10276D01*
X291399Y10372D01*
X291399Y10372D01*
X291389Y10472D01*
X291046Y11603D01*
X290999Y11692D01*
X290969Y11788D01*
X290412Y12830D01*
X290348Y12908D01*
X290301Y12996D01*
X289551Y13910D01*
X289474Y13974D01*
X289474Y13974D01*
X289410Y14051D01*
X288496Y14801D01*
X288408Y14848D01*
X288330Y14912D01*
X287288Y15469D01*
X287192Y15498D01*
X287103Y15546D01*
X285972Y15889D01*
X285872Y15899D01*
X285872Y15899D01*
X285776Y15928D01*
X284600Y16044D01*
X284550Y16039D01*
X284500Y16049D01*
X284450Y16039D01*
X284400Y16044D01*
X283224Y15928D01*
X283128Y15899D01*
X283128Y15899D01*
X283028Y15889D01*
X281897Y15546D01*
X281808Y15498D01*
X281712Y15469D01*
X280670Y14912D01*
X280592Y14848D01*
X280504Y14801D01*
X279590Y14051D01*
X279526Y13974D01*
X279526Y13974D01*
X279449Y13910D01*
X278699Y12996D01*
X278652Y12908D01*
X278588Y12830D01*
X278031Y11788D01*
X278002Y11692D01*
X277954Y11603D01*
X277611Y10472D01*
X277601Y10372D01*
X277601Y10372D01*
X277572Y10276D01*
X277456Y9100D01*
X277466Y9000D01*
X277456Y8900D01*
X277572Y7724D01*
X277601Y7628D01*
X277601Y7628D01*
X277611Y7528D01*
X277954Y6397D01*
X278001Y6308D01*
X278031Y6212D01*
X278588Y5170D01*
X278652Y5092D01*
X278699Y5004D01*
X279449Y4090D01*
X279526Y4026D01*
X279526Y4026D01*
X279590Y3949D01*
X280504Y3199D01*
X280592Y3152D01*
X280670Y3088D01*
X281712Y2531D01*
X281808Y2502D01*
X281897Y2454D01*
X283028Y2111D01*
X283128Y2101D01*
X283128Y2101D01*
X283224Y2072D01*
X283658Y2029D01*
X283633Y1529D01*
X1529D01*
Y115646D01*
X2029Y115720D01*
X2312Y114787D01*
X2360Y114698D01*
X2389Y114602D01*
X2946Y113560D01*
X3010Y113482D01*
X3057Y113393D01*
X3807Y112480D01*
X3884Y112416D01*
X3884Y112416D01*
X3948Y112338D01*
X4862Y111589D01*
X4950Y111541D01*
X5028Y111478D01*
X6070Y110921D01*
X6166Y110891D01*
X6255Y110844D01*
X7386Y110501D01*
X7486Y110491D01*
X7486Y110491D01*
X7582Y110462D01*
X8758Y110346D01*
X8858Y110356D01*
X8958Y110346D01*
X10134Y110462D01*
X10230Y110491D01*
X10231Y110491D01*
X10330Y110501D01*
X11461Y110844D01*
X11550Y110891D01*
X11646Y110921D01*
X12688Y111478D01*
X12766Y111541D01*
X12855Y111589D01*
X13768Y112338D01*
X13832Y112416D01*
X13832Y112416D01*
X13909Y112480D01*
X14659Y113393D01*
X14707Y113482D01*
X14770Y113560D01*
X15327Y114602D01*
X15357Y114698D01*
X15404Y114787D01*
X15747Y115918D01*
X15757Y116017D01*
X15757Y116018D01*
X15786Y116114D01*
X15902Y117290D01*
X15897Y117340D01*
X15907Y117390D01*
X15897Y117439D01*
X15902Y117490D01*
X15786Y118666D01*
X15757Y118762D01*
X15757Y118762D01*
X15747Y118862D01*
X15404Y119993D01*
X15357Y120081D01*
X15327Y120178D01*
X14770Y121220D01*
X14707Y121298D01*
X14659Y121386D01*
X13909Y122300D01*
X13832Y122363D01*
X13832Y122363D01*
X13768Y122441D01*
X12855Y123191D01*
X12766Y123238D01*
X12688Y123302D01*
X11646Y123859D01*
X11550Y123888D01*
X11461Y123936D01*
X10330Y124279D01*
X10231Y124288D01*
X10230Y124288D01*
X10134Y124318D01*
X8958Y124434D01*
X8858Y124424D01*
X8758Y124434D01*
X7582Y124318D01*
X7486Y124288D01*
X7486Y124288D01*
X7386Y124279D01*
X6255Y123936D01*
X6166Y123888D01*
X6070Y123859D01*
X5028Y123302D01*
X4950Y123238D01*
X4862Y123191D01*
X3948Y122441D01*
X3884Y122363D01*
X3884Y122363D01*
X3807Y122300D01*
X3057Y121386D01*
X3010Y121298D01*
X2946Y121220D01*
X2389Y120178D01*
X2360Y120082D01*
X2312Y119993D01*
X2029Y119060D01*
X1529Y119134D01*
Y143204D01*
X2029Y143279D01*
X2312Y142346D01*
X2360Y142257D01*
X2389Y142161D01*
X2946Y141119D01*
X3010Y141041D01*
X3057Y140952D01*
X3807Y140039D01*
X3884Y139975D01*
X3884Y139975D01*
X3948Y139898D01*
X4862Y139148D01*
X4950Y139100D01*
X5028Y139037D01*
X6070Y138479D01*
X6166Y138450D01*
X6255Y138403D01*
X7386Y138060D01*
X7486Y138050D01*
X7486Y138050D01*
X7582Y138021D01*
X8758Y137905D01*
X8858Y137915D01*
X8958Y137905D01*
X10134Y138021D01*
X10230Y138050D01*
X10231Y138050D01*
X10330Y138060D01*
X11461Y138403D01*
X11550Y138450D01*
X11646Y138479D01*
X12688Y139037D01*
X12766Y139100D01*
X12855Y139148D01*
X13768Y139898D01*
X13832Y139975D01*
X13832Y139975D01*
X13909Y140039D01*
X14659Y140952D01*
X14707Y141041D01*
X14770Y141119D01*
X15327Y142161D01*
X15357Y142257D01*
X15404Y142346D01*
X15747Y143477D01*
X15757Y143577D01*
X15757Y143577D01*
X15786Y143673D01*
X15902Y144849D01*
X15897Y144899D01*
X15907Y144949D01*
X15897Y144998D01*
X15902Y145049D01*
X15786Y146225D01*
X15757Y146321D01*
X15757Y146321D01*
X15747Y146421D01*
X15404Y147552D01*
X15357Y147641D01*
X15327Y147737D01*
X14770Y148779D01*
X14707Y148857D01*
X14659Y148945D01*
X13909Y149859D01*
X13832Y149923D01*
X13832Y149923D01*
X13768Y150000D01*
X12855Y150750D01*
X12766Y150797D01*
X12688Y150861D01*
X11646Y151418D01*
X11550Y151447D01*
X11461Y151495D01*
X10330Y151838D01*
X10231Y151848D01*
X10230Y151848D01*
X10134Y151877D01*
X8958Y151992D01*
X8858Y151983D01*
X8758Y151992D01*
X7582Y151877D01*
X7486Y151848D01*
X7486Y151848D01*
X7386Y151838D01*
X6255Y151495D01*
X6166Y151447D01*
X6070Y151418D01*
X5028Y150861D01*
X4950Y150797D01*
X4862Y150750D01*
X3948Y150000D01*
X3884Y149923D01*
X3884Y149923D01*
X3807Y149859D01*
X3057Y148945D01*
X3010Y148857D01*
X2946Y148779D01*
X2389Y147737D01*
X2360Y147641D01*
X2312Y147552D01*
X2029Y146619D01*
X1529Y146693D01*
Y260971D01*
X245994D01*
X246185Y260509D01*
X231934Y246258D01*
X231472Y246449D01*
Y247354D01*
X227500D01*
X223528D01*
Y244902D01*
X223431Y244784D01*
X218257D01*
X218010Y245284D01*
X218453Y245861D01*
X218851Y246823D01*
X218987Y247854D01*
X218851Y248886D01*
X218453Y249848D01*
X217819Y250674D01*
X216993Y251307D01*
X216032Y251705D01*
X215000Y251841D01*
X213968Y251705D01*
X213007Y251307D01*
X212181Y250674D01*
X211547Y249848D01*
X211461Y249639D01*
X206039D01*
X205953Y249848D01*
X205319Y250674D01*
X204493Y251307D01*
X203532Y251705D01*
X202500Y251841D01*
X201468Y251705D01*
X200507Y251307D01*
X199681Y250674D01*
X199047Y249848D01*
X198961Y249639D01*
X193854D01*
X193854Y249639D01*
X193172Y249503D01*
X192844Y249284D01*
X188326D01*
X188281Y249394D01*
X187679Y250179D01*
X186894Y250781D01*
X185980Y251159D01*
X185000Y251288D01*
X184019Y251159D01*
X183106Y250781D01*
X182321Y250179D01*
X181719Y249394D01*
X181341Y248481D01*
X181212Y247500D01*
X181341Y246519D01*
X181719Y245606D01*
X182321Y244821D01*
X183106Y244219D01*
X184019Y243841D01*
X185000Y243712D01*
X185980Y243841D01*
X186894Y244219D01*
X187679Y244821D01*
X188281Y245606D01*
X188326Y245716D01*
X193500D01*
X194183Y245851D01*
X194510Y246070D01*
X198961D01*
X199047Y245861D01*
X199490Y245284D01*
X199243Y244784D01*
X195400D01*
X194717Y244649D01*
X194138Y244262D01*
X186638Y236762D01*
X186251Y236183D01*
X186116Y235500D01*
Y222844D01*
X185616Y222674D01*
X185424Y222924D01*
X184568Y223581D01*
X183570Y223994D01*
X182500Y224135D01*
X181430Y223994D01*
X180432Y223581D01*
X179576Y222924D01*
X178919Y222068D01*
X178506Y221070D01*
X178365Y220000D01*
X178506Y218930D01*
X178919Y217932D01*
X179576Y217076D01*
X180432Y216419D01*
X181430Y216005D01*
X182500Y215865D01*
X183570Y216005D01*
X184568Y216419D01*
X185424Y217076D01*
X185616Y217325D01*
X186116Y217156D01*
Y206100D01*
X186251Y205417D01*
X186638Y204838D01*
X212238Y179238D01*
X212238Y179238D01*
X212817Y178851D01*
X213500Y178716D01*
X213500Y178716D01*
X237261D01*
X246893Y169083D01*
X246713Y168649D01*
X246562Y167500D01*
X246713Y166351D01*
X247157Y165281D01*
X247862Y164362D01*
X248781Y163657D01*
X249851Y163213D01*
X251000Y163062D01*
X252149Y163213D01*
X253219Y163657D01*
X254138Y164362D01*
X254843Y165281D01*
X255287Y166351D01*
X255438Y167500D01*
X255287Y168649D01*
X254843Y169719D01*
X254138Y170638D01*
X253219Y171343D01*
X252149Y171787D01*
X251000Y171938D01*
X249851Y171787D01*
X249417Y171607D01*
X240270Y180754D01*
X240461Y181216D01*
X244761D01*
X246893Y179083D01*
X246713Y178649D01*
X246562Y177500D01*
X246713Y176351D01*
X247157Y175281D01*
X247862Y174362D01*
X248781Y173657D01*
X249851Y173213D01*
X251000Y173062D01*
X252149Y173213D01*
X253219Y173657D01*
X254138Y174362D01*
X254843Y175281D01*
X255287Y176351D01*
X255438Y177500D01*
X255287Y178649D01*
X254843Y179719D01*
X254138Y180638D01*
X253219Y181343D01*
X252149Y181787D01*
X251000Y181938D01*
X249851Y181787D01*
X249417Y181607D01*
X246762Y184262D01*
X246183Y184649D01*
X245500Y184784D01*
X219739D01*
X216081Y188442D01*
X216302Y188891D01*
X216500Y188865D01*
X217570Y189005D01*
X218568Y189419D01*
X219424Y190076D01*
X220081Y190932D01*
X220199Y191216D01*
X226674D01*
X226719Y191106D01*
X227321Y190321D01*
X228106Y189719D01*
X229019Y189341D01*
X230000Y189212D01*
X230980Y189341D01*
X231894Y189719D01*
X232679Y190321D01*
X233281Y191106D01*
X233659Y192019D01*
X233788Y193000D01*
X233659Y193981D01*
X233614Y194090D01*
X244662Y205138D01*
X245048Y205717D01*
X245184Y206400D01*
Y239561D01*
X246080Y240457D01*
X246580Y240250D01*
Y234100D01*
X246658Y233710D01*
X246879Y233379D01*
X247210Y233158D01*
X247600Y233080D01*
X254400D01*
X254790Y233158D01*
X255121Y233379D01*
X255342Y233710D01*
X255420Y234100D01*
Y239904D01*
X255882Y240095D01*
X306893Y189083D01*
X306713Y188649D01*
X306562Y187500D01*
X306713Y186351D01*
X307157Y185281D01*
X307862Y184362D01*
X308781Y183657D01*
X309851Y183213D01*
X311000Y183062D01*
X312149Y183213D01*
X313219Y183657D01*
X314138Y184362D01*
X314843Y185281D01*
X315287Y186351D01*
X315438Y187500D01*
X315287Y188649D01*
X314843Y189719D01*
X314138Y190638D01*
X313219Y191343D01*
X312149Y191787D01*
X311000Y191938D01*
X309851Y191787D01*
X309417Y191607D01*
X257062Y243962D01*
X256483Y244349D01*
X255800Y244484D01*
X245800D01*
X245117Y244349D01*
X244538Y243962D01*
X244538Y243962D01*
X242138Y241562D01*
X241752Y240983D01*
X241616Y240300D01*
Y207139D01*
X231090Y196614D01*
X230980Y196659D01*
X230000Y196788D01*
X229019Y196659D01*
X228106Y196281D01*
X227321Y195679D01*
X226719Y194894D01*
X226674Y194784D01*
X220199D01*
X220081Y195068D01*
X219424Y195924D01*
X218568Y196581D01*
X217570Y196994D01*
X216500Y197135D01*
X215430Y196994D01*
X214432Y196581D01*
X213576Y195924D01*
X212919Y195068D01*
X212506Y194070D01*
X212365Y193000D01*
X212391Y192802D01*
X211942Y192581D01*
X201784Y202739D01*
Y203315D01*
X201993Y203402D01*
X202819Y204035D01*
X203453Y204861D01*
X203851Y205822D01*
X203987Y206854D01*
X203851Y207886D01*
X203453Y208848D01*
X202819Y209674D01*
X201993Y210307D01*
X201032Y210705D01*
X200000Y210841D01*
X198968Y210705D01*
X198007Y210307D01*
X197181Y209674D01*
X196547Y208848D01*
X196149Y207886D01*
X196013Y206854D01*
X196149Y205822D01*
X196547Y204861D01*
X197181Y204035D01*
X198007Y203402D01*
X198216Y203315D01*
Y202000D01*
X198352Y201317D01*
X198738Y200738D01*
X216730Y182746D01*
X216539Y182284D01*
X214239D01*
X189684Y206839D01*
Y229296D01*
X190184Y229543D01*
X190606Y229219D01*
X191519Y228841D01*
X192500Y228712D01*
X193481Y228841D01*
X194394Y229219D01*
X195179Y229821D01*
X195781Y230606D01*
X196159Y231520D01*
X196288Y232500D01*
X196159Y233481D01*
X195781Y234394D01*
X195179Y235179D01*
X194394Y235781D01*
X193481Y236159D01*
X192500Y236288D01*
X191831Y236200D01*
X191597Y236674D01*
X196139Y241216D01*
X231200D01*
X231883Y241352D01*
X232462Y241738D01*
X233610Y242887D01*
X234074Y242644D01*
Y216753D01*
X231447Y214126D01*
X230796D01*
X230549Y214626D01*
X230953Y215152D01*
X231351Y216114D01*
X231487Y217146D01*
X231351Y218178D01*
X230953Y219139D01*
X230319Y219965D01*
X229493Y220598D01*
X228532Y220997D01*
X227500Y221132D01*
X226468Y220997D01*
X225507Y220598D01*
X224681Y219965D01*
X224047Y219139D01*
X223961Y218930D01*
X218972D01*
Y220098D01*
X218895Y220489D01*
X218674Y220819D01*
X218343Y221040D01*
X217953Y221118D01*
X212047D01*
X211657Y221040D01*
X211326Y220819D01*
X211105Y220489D01*
X211028Y220098D01*
Y214193D01*
X210973Y214126D01*
X209799D01*
X206472Y217453D01*
Y220098D01*
X206395Y220489D01*
X206174Y220819D01*
X205843Y221040D01*
X205453Y221118D01*
X199547D01*
X199157Y221040D01*
X198826Y220819D01*
X198605Y220489D01*
X198528Y220098D01*
Y214193D01*
X198605Y213803D01*
X198826Y213472D01*
X199157Y213251D01*
X199547Y213173D01*
X202193D01*
X206406Y208960D01*
X207033Y208479D01*
X207762Y208177D01*
X208546Y208074D01*
X232700D01*
X233483Y208177D01*
X234213Y208479D01*
X234840Y208960D01*
X239240Y213360D01*
X239721Y213987D01*
X240023Y214717D01*
X240126Y215500D01*
Y241547D01*
X251403Y252824D01*
X261397D01*
X306580Y207640D01*
X306562Y207500D01*
X306713Y206351D01*
X307157Y205281D01*
X307862Y204362D01*
X308781Y203657D01*
X309851Y203213D01*
X311000Y203062D01*
X312149Y203213D01*
X313219Y203657D01*
X314138Y204362D01*
X314224Y204474D01*
X350847D01*
X351360Y203960D01*
X351987Y203480D01*
X352717Y203177D01*
X353500Y203074D01*
X359061D01*
X359307Y202574D01*
X358919Y202068D01*
X358506Y201070D01*
X358365Y200000D01*
X358506Y198930D01*
X358919Y197932D01*
X359576Y197076D01*
X360432Y196419D01*
X361430Y196005D01*
X362500Y195865D01*
X363570Y196005D01*
X364568Y196419D01*
X365424Y197076D01*
X366081Y197932D01*
X366494Y198930D01*
X366635Y200000D01*
X366502Y201011D01*
X366616Y201122D01*
X366954Y201266D01*
X368386Y199834D01*
X368506Y198930D01*
X368919Y197932D01*
X369576Y197076D01*
X370432Y196419D01*
X371430Y196005D01*
X372500Y195865D01*
X373570Y196005D01*
X374568Y196419D01*
X375424Y197076D01*
X376081Y197932D01*
X376495Y198930D01*
X376635Y200000D01*
X376495Y201070D01*
X376081Y202068D01*
X375424Y202924D01*
X374568Y203581D01*
X373570Y203994D01*
X372666Y204114D01*
X368540Y208240D01*
X368118Y208563D01*
X368175Y209128D01*
X368394Y209219D01*
X369179Y209821D01*
X369781Y210606D01*
X369826Y210716D01*
X373674D01*
X373719Y210606D01*
X374321Y209821D01*
X375106Y209219D01*
X376020Y208841D01*
X377000Y208712D01*
X377980Y208841D01*
X378894Y209219D01*
X379679Y209821D01*
X380281Y210606D01*
X380659Y211520D01*
X380788Y212500D01*
X380659Y213480D01*
X380281Y214394D01*
X379679Y215179D01*
X378894Y215781D01*
X377980Y216159D01*
X377000Y216288D01*
X376020Y216159D01*
X375106Y215781D01*
X374321Y215179D01*
X373719Y214394D01*
X373674Y214284D01*
X369826D01*
X369781Y214394D01*
X369179Y215179D01*
X368394Y215781D01*
X367480Y216159D01*
X366500Y216288D01*
X365519Y216159D01*
X364606Y215781D01*
X363821Y215179D01*
X363219Y214394D01*
X362841Y213480D01*
X362712Y212500D01*
X362841Y211520D01*
X363219Y210606D01*
X363821Y209821D01*
X364076Y209626D01*
X363906Y209126D01*
X357594D01*
X357424Y209626D01*
X357679Y209821D01*
X358281Y210606D01*
X358659Y211520D01*
X358788Y212500D01*
X358659Y213480D01*
X358281Y214394D01*
X357679Y215179D01*
X356894Y215781D01*
X355980Y216159D01*
X355000Y216288D01*
X354019Y216159D01*
X353106Y215781D01*
X352321Y215179D01*
X351719Y214394D01*
X351341Y213480D01*
X351212Y212500D01*
X351341Y211520D01*
X351545Y211026D01*
X351211Y210526D01*
X314224D01*
X314138Y210638D01*
X313219Y211343D01*
X312149Y211787D01*
X311000Y211938D01*
X310860Y211919D01*
X310104Y212676D01*
X310337Y213149D01*
X311000Y213062D01*
X312149Y213213D01*
X313219Y213657D01*
X314138Y214362D01*
X314843Y215281D01*
X315287Y216351D01*
X315438Y217500D01*
X315287Y218649D01*
X314843Y219719D01*
X314138Y220638D01*
X313219Y221343D01*
X312149Y221787D01*
X311000Y221938D01*
X309851Y221787D01*
X308781Y221343D01*
X307862Y220638D01*
X307157Y219719D01*
X306713Y218649D01*
X306562Y217500D01*
X306649Y216837D01*
X306176Y216603D01*
X265163Y257616D01*
X265371Y258116D01*
X358361D01*
X362886Y253590D01*
X362841Y253481D01*
X362712Y252500D01*
X362841Y251519D01*
X363219Y250606D01*
X363821Y249821D01*
X364606Y249219D01*
X365519Y248841D01*
X366500Y248712D01*
X367480Y248841D01*
X368394Y249219D01*
X369179Y249821D01*
X369781Y250606D01*
X370159Y251519D01*
X370288Y252500D01*
X370159Y253481D01*
X369781Y254394D01*
X369179Y255179D01*
X368394Y255781D01*
X367480Y256159D01*
X366500Y256288D01*
X365519Y256159D01*
X365410Y256114D01*
X361015Y260509D01*
X361206Y260971D01*
X423471D01*
Y82500D01*
D02*
G37*
%LPC*%
G36*
X318000Y109897D02*
Y105500D01*
X320494D01*
Y106968D01*
X320392Y107744D01*
X320093Y108466D01*
X319617Y109086D01*
X318997Y109562D01*
X318275Y109861D01*
X318000Y109897D01*
D02*
G37*
G36*
X328500Y120635D02*
X327430Y120494D01*
X326432Y120081D01*
X325576Y119424D01*
X324919Y118568D01*
X324505Y117570D01*
X324365Y116500D01*
X324505Y115430D01*
X324919Y114432D01*
X325576Y113576D01*
X326432Y112919D01*
X327430Y112505D01*
X328500Y112365D01*
X329570Y112505D01*
X330568Y112919D01*
X331424Y113576D01*
X332081Y114432D01*
X332494Y115430D01*
X332635Y116500D01*
X332494Y117570D01*
X332081Y118568D01*
X331424Y119424D01*
X330568Y120081D01*
X329570Y120494D01*
X328500Y120635D01*
D02*
G37*
G36*
X201570Y104500D02*
X198000D01*
Y100930D01*
X198570Y101005D01*
X199568Y101419D01*
X200424Y102076D01*
X201081Y102932D01*
X201495Y103930D01*
X201570Y104500D01*
D02*
G37*
G36*
X197000Y109070D02*
X196430Y108994D01*
X195432Y108581D01*
X194576Y107924D01*
X193919Y107068D01*
X193506Y106070D01*
X193430Y105500D01*
X197000D01*
Y109070D01*
D02*
G37*
G36*
X198000D02*
Y105500D01*
X201570D01*
X201495Y106070D01*
X201081Y107068D01*
X200424Y107924D01*
X199568Y108581D01*
X198570Y108994D01*
X198000Y109070D01*
D02*
G37*
G36*
X348000Y116000D02*
X344430D01*
X344506Y115430D01*
X344919Y114432D01*
X345576Y113576D01*
X346432Y112919D01*
X347430Y112505D01*
X348000Y112430D01*
Y116000D01*
D02*
G37*
G36*
X349000Y120570D02*
Y117000D01*
X352570D01*
X352495Y117570D01*
X352081Y118568D01*
X351424Y119424D01*
X350568Y120081D01*
X349570Y120494D01*
X349000Y120570D01*
D02*
G37*
G36*
X51311Y123780D02*
X47237D01*
X47329Y123079D01*
X47793Y121960D01*
X48530Y120999D01*
X49491Y120262D01*
X50610Y119798D01*
X51311Y119706D01*
Y123780D01*
D02*
G37*
G36*
X348000Y120570D02*
X347430Y120494D01*
X346432Y120081D01*
X345576Y119424D01*
X344919Y118568D01*
X344506Y117570D01*
X344430Y117000D01*
X348000D01*
Y120570D01*
D02*
G37*
G36*
X352570Y116000D02*
X349000D01*
Y112430D01*
X349570Y112505D01*
X350568Y112919D01*
X351424Y113576D01*
X352081Y114432D01*
X352495Y115430D01*
X352570Y116000D01*
D02*
G37*
G36*
X56711Y117184D02*
X56028Y117049D01*
X55449Y116662D01*
X55449Y116662D01*
X53547Y114760D01*
X53012Y114982D01*
X51811Y115140D01*
X50610Y114982D01*
X49491Y114518D01*
X48530Y113781D01*
X47793Y112820D01*
X47329Y111701D01*
X47171Y110500D01*
X47329Y109299D01*
X47793Y108180D01*
X48530Y107219D01*
X49491Y106482D01*
X50610Y106018D01*
X51811Y105860D01*
X53012Y106018D01*
X54131Y106482D01*
X55092Y107219D01*
X55829Y108180D01*
X56293Y109299D01*
X56451Y110500D01*
X56293Y111701D01*
X56071Y112236D01*
X57450Y113616D01*
X252721D01*
X252891Y113116D01*
X252321Y112679D01*
X251719Y111894D01*
X251341Y110980D01*
X251212Y110000D01*
X251341Y109019D01*
X251719Y108106D01*
X252321Y107321D01*
X253106Y106719D01*
X254019Y106341D01*
X255000Y106212D01*
X255980Y106341D01*
X256090Y106386D01*
X264438Y98038D01*
X264438Y98038D01*
X265017Y97651D01*
X265700Y97516D01*
X265700Y97516D01*
X311300D01*
X311983Y97651D01*
X312562Y98038D01*
X313762Y99238D01*
X313762Y99238D01*
X314148Y99817D01*
X314284Y100500D01*
X314284Y100500D01*
Y100659D01*
X314617Y100914D01*
X314750Y101087D01*
X315250D01*
X315383Y100914D01*
X316003Y100438D01*
X316725Y100139D01*
X317000Y100103D01*
Y105000D01*
Y109897D01*
X316725Y109861D01*
X316003Y109562D01*
X315383Y109086D01*
X315250Y108913D01*
X314750D01*
X314617Y109086D01*
X313997Y109562D01*
X313275Y109861D01*
X312500Y109963D01*
X311725Y109861D01*
X311003Y109562D01*
X310383Y109086D01*
X310250Y108913D01*
X309750D01*
X309617Y109086D01*
X308997Y109562D01*
X308275Y109861D01*
X307500Y109963D01*
X306725Y109861D01*
X306003Y109562D01*
X305383Y109086D01*
X304907Y108466D01*
X304608Y107744D01*
X304506Y106968D01*
Y103032D01*
X304608Y102257D01*
X304886Y101584D01*
X304751Y101215D01*
X304687Y101084D01*
X266439D01*
X258614Y108910D01*
X258659Y109019D01*
X258788Y110000D01*
X258659Y110980D01*
X258281Y111894D01*
X257679Y112679D01*
X257109Y113116D01*
X257279Y113616D01*
X292721D01*
X292891Y113116D01*
X292321Y112679D01*
X291719Y111894D01*
X291341Y110980D01*
X291212Y110000D01*
X291341Y109019D01*
X291719Y108106D01*
X292321Y107321D01*
X293106Y106719D01*
X294020Y106341D01*
X295000Y106212D01*
X295981Y106341D01*
X296894Y106719D01*
X297679Y107321D01*
X298281Y108106D01*
X298659Y109019D01*
X298788Y110000D01*
X298659Y110980D01*
X298281Y111894D01*
X297679Y112679D01*
X297109Y113116D01*
X297279Y113616D01*
X318861D01*
X343886Y88590D01*
X343841Y88481D01*
X343712Y87500D01*
X343841Y86519D01*
X344219Y85606D01*
X344821Y84821D01*
X345606Y84219D01*
X346519Y83841D01*
X347500Y83712D01*
X348481Y83841D01*
X349394Y84219D01*
X350179Y84821D01*
X350781Y85606D01*
X351159Y86519D01*
X351288Y87500D01*
X351159Y88481D01*
X350781Y89394D01*
X350179Y90179D01*
X349394Y90781D01*
X348481Y91159D01*
X347500Y91288D01*
X346519Y91159D01*
X346410Y91114D01*
X320862Y116662D01*
X320283Y117049D01*
X319600Y117184D01*
X56711D01*
X56711Y117184D01*
D02*
G37*
G36*
X291500Y86788D02*
X290519Y86659D01*
X289606Y86281D01*
X288821Y85679D01*
X288219Y84894D01*
X287841Y83981D01*
X287712Y83000D01*
X287841Y82020D01*
X288219Y81106D01*
X288821Y80321D01*
X289606Y79719D01*
X290519Y79341D01*
X291500Y79212D01*
X292480Y79341D01*
X293394Y79719D01*
X294179Y80321D01*
X294781Y81106D01*
X295159Y82020D01*
X295288Y83000D01*
X295159Y83981D01*
X294781Y84894D01*
X294179Y85679D01*
X293394Y86281D01*
X292480Y86659D01*
X291500Y86788D01*
D02*
G37*
G36*
X182000Y94500D02*
X178778D01*
X178841Y94020D01*
X179219Y93106D01*
X179821Y92321D01*
X180606Y91719D01*
X181519Y91341D01*
X182000Y91277D01*
Y94500D01*
D02*
G37*
G36*
X251500Y86788D02*
X250519Y86659D01*
X249606Y86281D01*
X248821Y85679D01*
X248219Y84894D01*
X247841Y83981D01*
X247712Y83000D01*
X247841Y82020D01*
X248219Y81106D01*
X248821Y80321D01*
X249606Y79719D01*
X250519Y79341D01*
X251500Y79212D01*
X252481Y79341D01*
X253394Y79719D01*
X254179Y80321D01*
X254781Y81106D01*
X255159Y82020D01*
X255288Y83000D01*
X255159Y83981D01*
X254781Y84894D01*
X254179Y85679D01*
X253394Y86281D01*
X252481Y86659D01*
X251500Y86788D01*
D02*
G37*
G36*
X242500Y78921D02*
Y75500D01*
X245921D01*
X245851Y76032D01*
X245453Y76993D01*
X244819Y77819D01*
X243993Y78453D01*
X243032Y78851D01*
X242500Y78921D01*
D02*
G37*
G36*
X402500Y204135D02*
X401430Y203994D01*
X400432Y203581D01*
X399576Y202924D01*
X398919Y202068D01*
X398505Y201070D01*
X398365Y200000D01*
X398505Y198930D01*
X398919Y197932D01*
X399576Y197076D01*
X400432Y196419D01*
X400716Y196301D01*
Y125639D01*
X357577Y82500D01*
X355000D01*
Y79923D01*
X353461Y78384D01*
X330539D01*
X313362Y95562D01*
X312783Y95948D01*
X312100Y96084D01*
X258439D01*
X257614Y96910D01*
X257659Y97019D01*
X257788Y98000D01*
X257659Y98980D01*
X257281Y99894D01*
X256679Y100679D01*
X255894Y101281D01*
X254980Y101659D01*
X254000Y101788D01*
X253019Y101659D01*
X252106Y101281D01*
X251321Y100679D01*
X250719Y99894D01*
X250341Y98980D01*
X250212Y98000D01*
X250341Y97019D01*
X250719Y96106D01*
X251321Y95321D01*
X252106Y94719D01*
X253019Y94341D01*
X254000Y94212D01*
X254980Y94341D01*
X255090Y94386D01*
X256438Y93038D01*
X257017Y92651D01*
X257700Y92516D01*
X307961D01*
X308985Y91491D01*
X308702Y91067D01*
X308481Y91159D01*
X307500Y91288D01*
X306520Y91159D01*
X305606Y90781D01*
X304821Y90179D01*
X304219Y89394D01*
X303841Y88481D01*
X303712Y87500D01*
X303841Y86519D01*
X304219Y85606D01*
X304821Y84821D01*
X305606Y84219D01*
X306520Y83841D01*
X307500Y83712D01*
X308481Y83841D01*
X309394Y84219D01*
X310179Y84821D01*
X310781Y85606D01*
X311159Y86519D01*
X311288Y87500D01*
X311159Y88481D01*
X311067Y88702D01*
X311491Y88985D01*
X327338Y73138D01*
X327917Y72751D01*
X328600Y72616D01*
X328600Y72616D01*
X345461D01*
X346156Y71921D01*
X345873Y71497D01*
X345480Y71659D01*
X345000Y71723D01*
Y68000D01*
X344500D01*
Y67500D01*
X340777D01*
X340841Y67019D01*
X341219Y66106D01*
X341543Y65684D01*
X341296Y65184D01*
X309839D01*
X308114Y66910D01*
X308159Y67019D01*
X308288Y68000D01*
X308159Y68980D01*
X307781Y69894D01*
X307179Y70679D01*
X306394Y71281D01*
X305481Y71659D01*
X304500Y71788D01*
X303520Y71659D01*
X302606Y71281D01*
X301821Y70679D01*
X301219Y69894D01*
X300841Y68980D01*
X300712Y68000D01*
X300841Y67019D01*
X301219Y66106D01*
X301821Y65321D01*
X302606Y64719D01*
X303520Y64341D01*
X304500Y64212D01*
X305481Y64341D01*
X305590Y64386D01*
X307838Y62138D01*
X307838Y62138D01*
X308417Y61752D01*
X309100Y61616D01*
X347000D01*
X347683Y61752D01*
X348262Y62138D01*
X350362Y64238D01*
X350748Y64817D01*
X350884Y65500D01*
X350884Y65500D01*
Y71500D01*
X350884Y71500D01*
X350748Y72183D01*
X350362Y72762D01*
X348770Y74354D01*
X348961Y74816D01*
X354200D01*
X354500Y74875D01*
X355000Y74474D01*
Y50000D01*
X420000D01*
Y82500D01*
X363277D01*
X363085Y82962D01*
X403762Y123638D01*
X403762Y123638D01*
X404148Y124217D01*
X404284Y124900D01*
X404284Y124900D01*
Y196301D01*
X404568Y196419D01*
X405424Y197076D01*
X406081Y197932D01*
X406495Y198930D01*
X406635Y200000D01*
X406495Y201070D01*
X406081Y202068D01*
X405424Y202924D01*
X404568Y203581D01*
X403570Y203994D01*
X402500Y204135D01*
D02*
G37*
G36*
X186223Y94500D02*
X183000D01*
Y91277D01*
X183481Y91341D01*
X184394Y91719D01*
X185179Y92321D01*
X185781Y93106D01*
X186159Y94020D01*
X186223Y94500D01*
D02*
G37*
G36*
X320494Y104500D02*
X318000D01*
Y100103D01*
X318275Y100139D01*
X318997Y100438D01*
X319617Y100914D01*
X320093Y101534D01*
X320392Y102257D01*
X320494Y103032D01*
Y104500D01*
D02*
G37*
G36*
X197000D02*
X193430D01*
X193506Y103930D01*
X193919Y102932D01*
X194576Y102076D01*
X195432Y101419D01*
X196430Y101005D01*
X197000Y100930D01*
Y104500D01*
D02*
G37*
G36*
X183000Y98722D02*
Y95500D01*
X186223D01*
X186159Y95981D01*
X185781Y96894D01*
X185179Y97679D01*
X184394Y98281D01*
X183481Y98659D01*
X183000Y98722D01*
D02*
G37*
G36*
X214000Y101788D02*
X213019Y101659D01*
X212106Y101281D01*
X211321Y100679D01*
X210719Y99894D01*
X210341Y98980D01*
X210212Y98000D01*
X210341Y97019D01*
X210719Y96106D01*
X211321Y95321D01*
X212106Y94719D01*
X213019Y94341D01*
X214000Y94212D01*
X214981Y94341D01*
X215894Y94719D01*
X216679Y95321D01*
X217281Y96106D01*
X217659Y97019D01*
X217788Y98000D01*
X217659Y98980D01*
X217281Y99894D01*
X216679Y100679D01*
X215894Y101281D01*
X214981Y101659D01*
X214000Y101788D01*
D02*
G37*
G36*
X182000Y98722D02*
X181519Y98659D01*
X180606Y98281D01*
X179821Y97679D01*
X179219Y96894D01*
X178841Y95981D01*
X178778Y95500D01*
X182000D01*
Y98722D01*
D02*
G37*
G36*
X56385Y123780D02*
X52311D01*
Y119706D01*
X53012Y119798D01*
X54131Y120262D01*
X55092Y120999D01*
X55829Y121960D01*
X56293Y123079D01*
X56385Y123780D01*
D02*
G37*
G36*
X202070Y144000D02*
X198500D01*
Y140430D01*
X199070Y140506D01*
X200068Y140919D01*
X200924Y141576D01*
X201581Y142432D01*
X201994Y143430D01*
X202070Y144000D01*
D02*
G37*
G36*
X182500Y148788D02*
X181519Y148659D01*
X180606Y148281D01*
X179821Y147679D01*
X179219Y146894D01*
X178841Y145981D01*
X178712Y145000D01*
X178841Y144019D01*
X179219Y143106D01*
X179821Y142321D01*
X180606Y141719D01*
X181519Y141341D01*
X182500Y141212D01*
X183481Y141341D01*
X184394Y141719D01*
X185179Y142321D01*
X185781Y143106D01*
X186159Y144019D01*
X186288Y145000D01*
X186159Y145981D01*
X185781Y146894D01*
X185179Y147679D01*
X184394Y148281D01*
X183481Y148659D01*
X182500Y148788D01*
D02*
G37*
G36*
X197500Y144000D02*
X193930D01*
X194006Y143430D01*
X194419Y142432D01*
X195076Y141576D01*
X195932Y140919D01*
X196930Y140506D01*
X197500Y140430D01*
Y144000D01*
D02*
G37*
G36*
X44574Y137559D02*
X40500D01*
Y133485D01*
X41201Y133577D01*
X42320Y134041D01*
X43281Y134778D01*
X44018Y135739D01*
X44482Y136858D01*
X44574Y137559D01*
D02*
G37*
G36*
X251000Y141938D02*
X249851Y141787D01*
X248781Y141343D01*
X247862Y140638D01*
X247157Y139719D01*
X246976Y139284D01*
X235972D01*
Y140453D01*
X235895Y140843D01*
X235674Y141174D01*
X235343Y141395D01*
X234953Y141472D01*
X229047D01*
X228657Y141395D01*
X228326Y141174D01*
X228105Y140843D01*
X228028Y140453D01*
Y134547D01*
X228105Y134157D01*
X228326Y133826D01*
X228657Y133605D01*
X229047Y133528D01*
X234953D01*
X235343Y133605D01*
X235674Y133826D01*
X235895Y134157D01*
X235972Y134547D01*
Y135716D01*
X246976D01*
X247157Y135281D01*
X247862Y134362D01*
X248781Y133657D01*
X249851Y133213D01*
X251000Y133062D01*
X252149Y133213D01*
X253219Y133657D01*
X254138Y134362D01*
X254843Y135281D01*
X255287Y136351D01*
X255438Y137500D01*
X255287Y138649D01*
X254843Y139719D01*
X254138Y140638D01*
X253219Y141343D01*
X252149Y141787D01*
X251000Y141938D01*
D02*
G37*
G36*
Y151938D02*
X249851Y151787D01*
X248781Y151343D01*
X247862Y150638D01*
X247157Y149719D01*
X246713Y148649D01*
X246562Y147500D01*
X246713Y146351D01*
X247157Y145281D01*
X247862Y144362D01*
X248781Y143657D01*
X249851Y143213D01*
X251000Y143062D01*
X252149Y143213D01*
X253219Y143657D01*
X254138Y144362D01*
X254843Y145281D01*
X255287Y146351D01*
X255438Y147500D01*
X255287Y148649D01*
X254843Y149719D01*
X254138Y150638D01*
X253219Y151343D01*
X252149Y151787D01*
X251000Y151938D01*
D02*
G37*
G36*
X51811Y156478D02*
X50610Y156320D01*
X49491Y155857D01*
X48530Y155119D01*
X47793Y154158D01*
X47329Y153039D01*
X47171Y151839D01*
X47329Y150638D01*
X47793Y149519D01*
X48530Y148558D01*
X49491Y147820D01*
X50610Y147357D01*
X51811Y147199D01*
X53012Y147357D01*
X54131Y147820D01*
X55092Y148558D01*
X55829Y149519D01*
X56293Y150638D01*
X56451Y151839D01*
X56293Y153039D01*
X55829Y154158D01*
X55092Y155119D01*
X54131Y155857D01*
X53012Y156320D01*
X51811Y156478D01*
D02*
G37*
G36*
X230000Y156788D02*
X229019Y156659D01*
X228106Y156281D01*
X227321Y155679D01*
X226719Y154894D01*
X226341Y153981D01*
X226212Y153000D01*
X226341Y152020D01*
X226719Y151106D01*
X227321Y150321D01*
X228106Y149719D01*
X229019Y149341D01*
X230000Y149212D01*
X230980Y149341D01*
X231894Y149719D01*
X232679Y150321D01*
X233281Y151106D01*
X233659Y152020D01*
X233788Y153000D01*
X233659Y153981D01*
X233281Y154894D01*
X232679Y155679D01*
X231894Y156281D01*
X230980Y156659D01*
X230000Y156788D01*
D02*
G37*
G36*
X198500Y148570D02*
Y145000D01*
X202070D01*
X201994Y145570D01*
X201581Y146568D01*
X200924Y147424D01*
X200068Y148081D01*
X199070Y148495D01*
X198500Y148570D01*
D02*
G37*
G36*
X311000Y151938D02*
X309851Y151787D01*
X308781Y151343D01*
X307862Y150638D01*
X307157Y149719D01*
X306713Y148649D01*
X306562Y147500D01*
X306713Y146351D01*
X307157Y145281D01*
X307862Y144362D01*
X308781Y143657D01*
X309851Y143213D01*
X311000Y143062D01*
X312149Y143213D01*
X313219Y143657D01*
X314138Y144362D01*
X314843Y145281D01*
X315287Y146351D01*
X315438Y147500D01*
X315287Y148649D01*
X314843Y149719D01*
X314138Y150638D01*
X313219Y151343D01*
X312149Y151787D01*
X311000Y151938D01*
D02*
G37*
G36*
X197500Y148570D02*
X196930Y148495D01*
X195932Y148081D01*
X195076Y147424D01*
X194419Y146568D01*
X194006Y145570D01*
X193930Y145000D01*
X197500D01*
Y148570D01*
D02*
G37*
G36*
X349069Y127000D02*
X345500D01*
Y123430D01*
X346070Y123505D01*
X347068Y123919D01*
X347924Y124576D01*
X348581Y125432D01*
X348994Y126430D01*
X349069Y127000D01*
D02*
G37*
G36*
X231500D02*
X228079D01*
X228149Y126468D01*
X228547Y125507D01*
X229181Y124681D01*
X230007Y124047D01*
X230968Y123649D01*
X231500Y123579D01*
Y127000D01*
D02*
G37*
G36*
X344500D02*
X340931D01*
X341005Y126430D01*
X341419Y125432D01*
X342076Y124576D01*
X342932Y123919D01*
X343930Y123505D01*
X344500Y123430D01*
Y127000D01*
D02*
G37*
G36*
X251000Y131938D02*
X249851Y131787D01*
X248781Y131343D01*
X247862Y130638D01*
X247157Y129719D01*
X246713Y128649D01*
X246562Y127500D01*
X246713Y126351D01*
X247157Y125281D01*
X247862Y124362D01*
X248781Y123657D01*
X249851Y123213D01*
X251000Y123062D01*
X252149Y123213D01*
X253219Y123657D01*
X254138Y124362D01*
X254843Y125281D01*
X255287Y126351D01*
X255438Y127500D01*
X255287Y128649D01*
X254843Y129719D01*
X254138Y130638D01*
X253219Y131343D01*
X252149Y131787D01*
X251000Y131938D01*
D02*
G37*
G36*
X311000D02*
X309851Y131787D01*
X308781Y131343D01*
X307862Y130638D01*
X307157Y129719D01*
X306713Y128649D01*
X306562Y127500D01*
X306713Y126351D01*
X307157Y125281D01*
X307862Y124362D01*
X308781Y123657D01*
X309851Y123213D01*
X311000Y123062D01*
X312149Y123213D01*
X313219Y123657D01*
X314138Y124362D01*
X314843Y125281D01*
X315287Y126351D01*
X315438Y127500D01*
X315287Y128649D01*
X314843Y129719D01*
X314138Y130638D01*
X313219Y131343D01*
X312149Y131787D01*
X311000Y131938D01*
D02*
G37*
G36*
X235921Y127000D02*
X232500D01*
Y123579D01*
X233032Y123649D01*
X233993Y124047D01*
X234819Y124681D01*
X235453Y125507D01*
X235851Y126468D01*
X235921Y127000D01*
D02*
G37*
G36*
X345500Y131570D02*
Y128000D01*
X349069D01*
X348994Y128570D01*
X348581Y129568D01*
X347924Y130424D01*
X347068Y131081D01*
X346070Y131494D01*
X345500Y131570D01*
D02*
G37*
G36*
X311000Y141938D02*
X309851Y141787D01*
X308781Y141343D01*
X307862Y140638D01*
X307157Y139719D01*
X306713Y138649D01*
X306562Y137500D01*
X306713Y136351D01*
X307157Y135281D01*
X307862Y134362D01*
X308781Y133657D01*
X309851Y133213D01*
X311000Y133062D01*
X312149Y133213D01*
X313219Y133657D01*
X314138Y134362D01*
X314843Y135281D01*
X315287Y136351D01*
X315438Y137500D01*
X315287Y138649D01*
X314843Y139719D01*
X314138Y140638D01*
X313219Y141343D01*
X312149Y141787D01*
X311000Y141938D01*
D02*
G37*
G36*
X232500Y131421D02*
Y128000D01*
X235921D01*
X235851Y128532D01*
X235453Y129493D01*
X234819Y130319D01*
X233993Y130953D01*
X233032Y131351D01*
X232500Y131421D01*
D02*
G37*
G36*
X344500Y131570D02*
X343930Y131494D01*
X342932Y131081D01*
X342076Y130424D01*
X341419Y129568D01*
X341005Y128570D01*
X340931Y128000D01*
X344500D01*
Y131570D01*
D02*
G37*
G36*
X231500Y131421D02*
X230968Y131351D01*
X230007Y130953D01*
X229181Y130319D01*
X228547Y129493D01*
X228149Y128532D01*
X228079Y128000D01*
X231500D01*
Y131421D01*
D02*
G37*
G36*
X196500Y39070D02*
X195930Y38995D01*
X194932Y38581D01*
X194076Y37924D01*
X193419Y37068D01*
X193006Y36070D01*
X192930Y35500D01*
X196500D01*
Y39070D01*
D02*
G37*
G36*
X197500D02*
Y35500D01*
X201070D01*
X200994Y36070D01*
X200581Y37068D01*
X199924Y37924D01*
X199068Y38581D01*
X198070Y38995D01*
X197500Y39070D01*
D02*
G37*
G36*
X211500Y38921D02*
X210968Y38851D01*
X210007Y38453D01*
X209181Y37819D01*
X208547Y36993D01*
X208149Y36032D01*
X208079Y35500D01*
X211500D01*
Y38921D01*
D02*
G37*
G36*
Y34500D02*
X208079D01*
X208149Y33968D01*
X208547Y33007D01*
X209181Y32181D01*
X210007Y31547D01*
X210968Y31149D01*
X211500Y31079D01*
Y34500D01*
D02*
G37*
G36*
X215921D02*
X212500D01*
Y31079D01*
X213032Y31149D01*
X213993Y31547D01*
X214819Y32181D01*
X215453Y33007D01*
X215851Y33968D01*
X215921Y34500D01*
D02*
G37*
G36*
X212500Y38921D02*
Y35500D01*
X215921D01*
X215851Y36032D01*
X215453Y36993D01*
X214819Y37819D01*
X213993Y38453D01*
X213032Y38851D01*
X212500Y38921D01*
D02*
G37*
G36*
X44485Y49000D02*
X38000D01*
Y42515D01*
X38872Y42601D01*
X40192Y43001D01*
X41408Y43652D01*
X42474Y44526D01*
X43349Y45592D01*
X43999Y46808D01*
X44399Y48128D01*
X44485Y49000D01*
D02*
G37*
G36*
X211500Y48921D02*
X210968Y48851D01*
X210007Y48453D01*
X209181Y47819D01*
X208547Y46993D01*
X208149Y46032D01*
X208079Y45500D01*
X211500D01*
Y48921D01*
D02*
G37*
G36*
X37000Y49000D02*
X30515D01*
X30601Y48128D01*
X31001Y46808D01*
X31651Y45592D01*
X32526Y44526D01*
X33592Y43652D01*
X34808Y43001D01*
X36128Y42601D01*
X37000Y42515D01*
Y49000D01*
D02*
G37*
G36*
X211500Y44500D02*
X208079D01*
X208149Y43968D01*
X208547Y43007D01*
X209181Y42181D01*
X210007Y41547D01*
X210968Y41149D01*
X211500Y41079D01*
Y44500D01*
D02*
G37*
G36*
X215921D02*
X212500D01*
Y41079D01*
X213032Y41149D01*
X213993Y41547D01*
X214819Y42181D01*
X215453Y43007D01*
X215851Y43968D01*
X215921Y44500D01*
D02*
G37*
G36*
X115200Y44097D02*
X112807Y43909D01*
X110473Y43349D01*
X108255Y42430D01*
X106209Y41176D01*
X104383Y39617D01*
X102824Y37791D01*
X101570Y35745D01*
X100652Y33527D01*
X100091Y31193D01*
X99903Y28800D01*
X100091Y26407D01*
X100652Y24073D01*
X101570Y21855D01*
X102824Y19808D01*
X104383Y17983D01*
X106209Y16424D01*
X108255Y15170D01*
X110473Y14252D01*
X111413Y14026D01*
X111354Y13526D01*
X82053D01*
X75320Y20260D01*
Y23000D01*
X75242Y23390D01*
X75021Y23721D01*
X74690Y23942D01*
X74300Y24020D01*
X68300D01*
X67910Y23942D01*
X67579Y23721D01*
X67358Y23390D01*
X67280Y23000D01*
Y17000D01*
X67358Y16610D01*
X67579Y16279D01*
X67910Y16058D01*
X68300Y15980D01*
X71040D01*
X78660Y8360D01*
X79287Y7880D01*
X80017Y7577D01*
X80800Y7474D01*
X177500D01*
X178283Y7577D01*
X179013Y7880D01*
X179640Y8360D01*
X182565Y11286D01*
X182981Y11341D01*
X183894Y11719D01*
X184226Y11974D01*
X194208D01*
X194932Y11419D01*
X195930Y11005D01*
X197000Y10865D01*
X198070Y11005D01*
X199068Y11419D01*
X199792Y11974D01*
X209450D01*
X210007Y11547D01*
X210968Y11149D01*
X212000Y11013D01*
X213032Y11149D01*
X213993Y11547D01*
X214819Y12181D01*
X215453Y13007D01*
X215851Y13968D01*
X215987Y15000D01*
X215851Y16032D01*
X215453Y16993D01*
X214819Y17819D01*
X213993Y18453D01*
X213032Y18851D01*
X212000Y18987D01*
X210968Y18851D01*
X210007Y18453D01*
X209450Y18026D01*
X199792D01*
X199068Y18581D01*
X198070Y18994D01*
X197000Y19135D01*
X195930Y18994D01*
X194932Y18581D01*
X194208Y18026D01*
X184226D01*
X183894Y18281D01*
X182981Y18659D01*
X182000Y18788D01*
X181019Y18659D01*
X180106Y18281D01*
X179321Y17679D01*
X178719Y16894D01*
X178341Y15980D01*
X178286Y15565D01*
X176247Y13526D01*
X119046D01*
X118987Y14026D01*
X119927Y14252D01*
X122145Y15170D01*
X124191Y16424D01*
X126017Y17983D01*
X127576Y19808D01*
X128830Y21855D01*
X129748Y24073D01*
X130309Y26407D01*
X130497Y28800D01*
X130309Y31193D01*
X129748Y33527D01*
X128830Y35745D01*
X127576Y37791D01*
X126017Y39617D01*
X124191Y41176D01*
X122145Y42430D01*
X119927Y43349D01*
X117593Y43909D01*
X115200Y44097D01*
D02*
G37*
G36*
X57000Y19500D02*
X53531D01*
X53603Y18956D01*
X54006Y17983D01*
X54647Y17147D01*
X55483Y16506D01*
X56456Y16103D01*
X57000Y16031D01*
Y19500D01*
D02*
G37*
G36*
X244953Y18972D02*
X239047D01*
X238657Y18895D01*
X238326Y18674D01*
X238105Y18343D01*
X238028Y17953D01*
Y12047D01*
X238105Y11657D01*
X238326Y11326D01*
X238657Y11105D01*
X239047Y11028D01*
X244953D01*
X245343Y11105D01*
X245674Y11326D01*
X245895Y11657D01*
X245972Y12047D01*
Y17953D01*
X245895Y18343D01*
X245674Y18674D01*
X245343Y18895D01*
X244953Y18972D01*
D02*
G37*
G36*
X22500Y40338D02*
X20172Y40186D01*
X17883Y39730D01*
X15674Y38980D01*
X13581Y37948D01*
X11641Y36652D01*
X9887Y35113D01*
X8348Y33359D01*
X7052Y31419D01*
X6020Y29326D01*
X5270Y27117D01*
X4814Y24828D01*
X4662Y22500D01*
X4814Y20172D01*
X5270Y17883D01*
X6020Y15674D01*
X7052Y13581D01*
X8348Y11641D01*
X9887Y9887D01*
X11641Y8348D01*
X13581Y7052D01*
X15674Y6020D01*
X17883Y5270D01*
X20172Y4814D01*
X22500Y4662D01*
X24828Y4814D01*
X27117Y5270D01*
X29326Y6020D01*
X31419Y7052D01*
X33359Y8348D01*
X35113Y9887D01*
X36652Y11641D01*
X37948Y13581D01*
X38980Y15674D01*
X39730Y17883D01*
X40186Y20172D01*
X40338Y22500D01*
X40186Y24828D01*
X39730Y27117D01*
X38980Y29326D01*
X37948Y31419D01*
X36652Y33359D01*
X35113Y35113D01*
X33359Y36652D01*
X31419Y37948D01*
X29326Y38980D01*
X27117Y39730D01*
X24828Y40186D01*
X22500Y40338D01*
D02*
G37*
G36*
X402500D02*
X400172Y40186D01*
X397883Y39730D01*
X395674Y38980D01*
X393581Y37948D01*
X391641Y36652D01*
X389886Y35113D01*
X388348Y33359D01*
X387052Y31419D01*
X386020Y29326D01*
X385270Y27117D01*
X384814Y24828D01*
X384662Y22500D01*
X384814Y20172D01*
X385270Y17883D01*
X386020Y15674D01*
X387052Y13581D01*
X388348Y11641D01*
X389886Y9887D01*
X391641Y8348D01*
X393581Y7052D01*
X395674Y6020D01*
X397883Y5270D01*
X400172Y4814D01*
X402500Y4662D01*
X404828Y4814D01*
X407117Y5270D01*
X409326Y6020D01*
X411419Y7052D01*
X413359Y8348D01*
X415113Y9887D01*
X416652Y11641D01*
X417948Y13581D01*
X418980Y15674D01*
X419730Y17883D01*
X420186Y20172D01*
X420338Y22500D01*
X420186Y24828D01*
X419730Y27117D01*
X418980Y29326D01*
X417948Y31419D01*
X416652Y33359D01*
X415113Y35113D01*
X413359Y36652D01*
X411419Y37948D01*
X409326Y38980D01*
X407117Y39730D01*
X404828Y40186D01*
X402500Y40338D01*
D02*
G37*
G36*
X61469Y19500D02*
X58000D01*
Y16031D01*
X58544Y16103D01*
X59517Y16506D01*
X60353Y17147D01*
X60994Y17983D01*
X61397Y18956D01*
X61469Y19500D01*
D02*
G37*
G36*
X196500Y34500D02*
X192930D01*
X193006Y33930D01*
X193419Y32932D01*
X194076Y32076D01*
X194932Y31419D01*
X195930Y31005D01*
X196500Y30931D01*
Y34500D01*
D02*
G37*
G36*
X201070D02*
X197500D01*
Y30931D01*
X198070Y31005D01*
X199068Y31419D01*
X199924Y32076D01*
X200581Y32932D01*
X200994Y33930D01*
X201070Y34500D01*
D02*
G37*
G36*
X212000Y28987D02*
X210968Y28851D01*
X210007Y28453D01*
X209181Y27819D01*
X208547Y26993D01*
X208149Y26032D01*
X208013Y25000D01*
X208149Y23968D01*
X208547Y23007D01*
X209181Y22181D01*
X210007Y21547D01*
X210968Y21149D01*
X212000Y21013D01*
X213032Y21149D01*
X213993Y21547D01*
X214819Y22181D01*
X215453Y23007D01*
X215851Y23968D01*
X215987Y25000D01*
X215851Y26032D01*
X215453Y26993D01*
X214819Y27819D01*
X213993Y28453D01*
X213032Y28851D01*
X212000Y28987D01*
D02*
G37*
G36*
X57000Y23969D02*
X56456Y23897D01*
X55483Y23494D01*
X54647Y22853D01*
X54006Y22017D01*
X53603Y21044D01*
X53531Y20500D01*
X57000D01*
Y23969D01*
D02*
G37*
G36*
X58000D02*
Y20500D01*
X61469D01*
X61397Y21044D01*
X60994Y22017D01*
X60353Y22853D01*
X59517Y23494D01*
X58544Y23897D01*
X58000Y23969D01*
D02*
G37*
G36*
X212500Y48921D02*
Y45500D01*
X215921D01*
X215851Y46032D01*
X215453Y46993D01*
X214819Y47819D01*
X213993Y48453D01*
X213032Y48851D01*
X212500Y48921D01*
D02*
G37*
G36*
X282570Y67000D02*
X279000D01*
Y63430D01*
X279570Y63506D01*
X280568Y63919D01*
X281424Y64576D01*
X282081Y65432D01*
X282494Y66430D01*
X282570Y67000D01*
D02*
G37*
G36*
X278000Y71570D02*
X277430Y71495D01*
X276432Y71081D01*
X275576Y70424D01*
X274919Y69568D01*
X274505Y68570D01*
X274430Y68000D01*
X278000D01*
Y71570D01*
D02*
G37*
G36*
Y67000D02*
X274430D01*
X274505Y66430D01*
X274919Y65432D01*
X275576Y64576D01*
X276432Y63919D01*
X277430Y63506D01*
X278000Y63430D01*
Y67000D01*
D02*
G37*
G36*
X20000Y76635D02*
X18930Y76494D01*
X17932Y76081D01*
X17076Y75424D01*
X16419Y74568D01*
X16005Y73570D01*
X15865Y72500D01*
X16005Y71430D01*
X16419Y70432D01*
X17076Y69576D01*
X17932Y68919D01*
X18930Y68506D01*
X19834Y68386D01*
X20860Y67360D01*
X21487Y66879D01*
X22217Y66577D01*
X23000Y66474D01*
X31180D01*
X31651Y65592D01*
X32526Y64526D01*
X33592Y63652D01*
X34808Y63002D01*
X36128Y62601D01*
X37500Y62466D01*
X38872Y62601D01*
X40192Y63002D01*
X41408Y63652D01*
X42474Y64526D01*
X43349Y65592D01*
X43999Y66808D01*
X44399Y68128D01*
X44534Y69500D01*
X44399Y70872D01*
X43999Y72192D01*
X43349Y73408D01*
X42474Y74474D01*
X41408Y75349D01*
X40192Y75999D01*
X38872Y76399D01*
X37500Y76534D01*
X36128Y76399D01*
X34808Y75999D01*
X33592Y75349D01*
X32526Y74474D01*
X31651Y73408D01*
X31180Y72526D01*
X24253D01*
X24114Y72666D01*
X23994Y73570D01*
X23581Y74568D01*
X22924Y75424D01*
X22068Y76081D01*
X21070Y76494D01*
X20000Y76635D01*
D02*
G37*
G36*
X258500Y71635D02*
X257430Y71495D01*
X256432Y71081D01*
X255576Y70424D01*
X254919Y69568D01*
X254505Y68570D01*
X254365Y67500D01*
X254505Y66430D01*
X254919Y65432D01*
X255576Y64576D01*
X256432Y63919D01*
X257430Y63506D01*
X258500Y63365D01*
X259570Y63506D01*
X260568Y63919D01*
X261424Y64576D01*
X262081Y65432D01*
X262494Y66430D01*
X262635Y67500D01*
X262494Y68570D01*
X262081Y69568D01*
X261424Y70424D01*
X260568Y71081D01*
X259570Y71495D01*
X258500Y71635D01*
D02*
G37*
G36*
X279000Y71570D02*
Y68000D01*
X282570D01*
X282494Y68570D01*
X282081Y69568D01*
X281424Y70424D01*
X280568Y71081D01*
X279570Y71495D01*
X279000Y71570D01*
D02*
G37*
G36*
X245921Y74500D02*
X242500D01*
Y71079D01*
X243032Y71149D01*
X243993Y71547D01*
X244819Y72181D01*
X245453Y73007D01*
X245851Y73968D01*
X245921Y74500D01*
D02*
G37*
G36*
X241500Y78921D02*
X240968Y78851D01*
X240007Y78453D01*
X239181Y77819D01*
X238547Y76993D01*
X238149Y76032D01*
X238079Y75500D01*
X241500D01*
Y78921D01*
D02*
G37*
G36*
Y74500D02*
X238079D01*
X238149Y73968D01*
X238547Y73007D01*
X239181Y72181D01*
X240007Y71547D01*
X240968Y71149D01*
X241500Y71079D01*
Y74500D01*
D02*
G37*
G36*
X344000Y71723D02*
X343519Y71659D01*
X342606Y71281D01*
X341821Y70679D01*
X341219Y69894D01*
X340841Y68980D01*
X340777Y68500D01*
X344000D01*
Y71723D01*
D02*
G37*
G36*
X212000Y78987D02*
X210968Y78851D01*
X210007Y78453D01*
X209181Y77819D01*
X208547Y76993D01*
X208149Y76032D01*
X208013Y75000D01*
X208149Y73968D01*
X208547Y73007D01*
X209181Y72181D01*
X210007Y71547D01*
X210968Y71149D01*
X212000Y71013D01*
X213032Y71149D01*
X213993Y71547D01*
X214819Y72181D01*
X215453Y73007D01*
X215851Y73968D01*
X215987Y75000D01*
X215851Y76032D01*
X215453Y76993D01*
X214819Y77819D01*
X213993Y78453D01*
X213032Y78851D01*
X212000Y78987D01*
D02*
G37*
G36*
X38000Y56485D02*
Y50000D01*
X44485D01*
X44399Y50872D01*
X43999Y52192D01*
X43349Y53408D01*
X42474Y54474D01*
X41408Y55348D01*
X40192Y55998D01*
X38872Y56399D01*
X38000Y56485D01*
D02*
G37*
G36*
X211500Y54500D02*
X208079D01*
X208149Y53968D01*
X208547Y53007D01*
X209181Y52181D01*
X210007Y51547D01*
X210968Y51149D01*
X211500Y51079D01*
Y54500D01*
D02*
G37*
G36*
X37000Y56485D02*
X36128Y56399D01*
X34808Y55998D01*
X33592Y55348D01*
X32526Y54474D01*
X31651Y53408D01*
X31001Y52192D01*
X30601Y50872D01*
X30515Y50000D01*
X37000D01*
Y56485D01*
D02*
G37*
G36*
X19500Y52000D02*
X15930D01*
X16005Y51430D01*
X16419Y50432D01*
X17076Y49576D01*
X17932Y48919D01*
X18930Y48505D01*
X19500Y48430D01*
Y52000D01*
D02*
G37*
G36*
X24070D02*
X20500D01*
Y48430D01*
X21070Y48505D01*
X22068Y48919D01*
X22924Y49576D01*
X23581Y50432D01*
X23994Y51430D01*
X24070Y52000D01*
D02*
G37*
G36*
X215921Y54500D02*
X212500D01*
Y51079D01*
X213032Y51149D01*
X213993Y51547D01*
X214819Y52181D01*
X215453Y53007D01*
X215851Y53968D01*
X215921Y54500D01*
D02*
G37*
G36*
X212500Y58921D02*
Y55500D01*
X215921D01*
X215851Y56032D01*
X215453Y56993D01*
X214819Y57819D01*
X213993Y58453D01*
X213032Y58851D01*
X212500Y58921D01*
D02*
G37*
G36*
X242000Y68987D02*
X240968Y68851D01*
X240007Y68453D01*
X239181Y67819D01*
X238547Y66993D01*
X238149Y66032D01*
X238013Y65000D01*
X238149Y63968D01*
X238547Y63007D01*
X238948Y62484D01*
X238702Y61984D01*
X217539D01*
X215764Y63759D01*
X215851Y63968D01*
X215987Y65000D01*
X215851Y66032D01*
X215453Y66993D01*
X214819Y67819D01*
X213993Y68453D01*
X213032Y68851D01*
X212000Y68987D01*
X210968Y68851D01*
X210007Y68453D01*
X209181Y67819D01*
X208547Y66993D01*
X208461Y66784D01*
X192000D01*
X192000Y66784D01*
X191317Y66649D01*
X190738Y66262D01*
X190738Y66262D01*
X183090Y58614D01*
X182981Y58659D01*
X182000Y58788D01*
X181019Y58659D01*
X180106Y58281D01*
X179321Y57679D01*
X178719Y56894D01*
X178341Y55980D01*
X178212Y55000D01*
X178341Y54019D01*
X178719Y53106D01*
X179321Y52321D01*
X180106Y51719D01*
X181019Y51341D01*
X182000Y51212D01*
X182981Y51341D01*
X183894Y51719D01*
X184679Y52321D01*
X185281Y53106D01*
X185659Y54019D01*
X185788Y55000D01*
X185659Y55980D01*
X185614Y56090D01*
X192739Y63216D01*
X208461D01*
X208547Y63007D01*
X209181Y62181D01*
X210007Y61547D01*
X210968Y61149D01*
X212000Y61013D01*
X213032Y61149D01*
X213241Y61236D01*
X215538Y58938D01*
X215538Y58938D01*
X216117Y58552D01*
X216800Y58416D01*
X216800Y58416D01*
X239181D01*
X239341Y57942D01*
X239181Y57819D01*
X238547Y56993D01*
X238149Y56032D01*
X238013Y55000D01*
X238149Y53968D01*
X238547Y53007D01*
X239181Y52181D01*
X239336Y52061D01*
X239212Y51527D01*
X238817Y51449D01*
X238238Y51062D01*
X235938Y48762D01*
X235552Y48183D01*
X235416Y47500D01*
Y29800D01*
X235552Y29117D01*
X235938Y28538D01*
X238236Y26241D01*
X238149Y26032D01*
X238013Y25000D01*
X238149Y23968D01*
X238547Y23007D01*
X239181Y22181D01*
X240007Y21547D01*
X240968Y21149D01*
X242000Y21013D01*
X243032Y21149D01*
X243993Y21547D01*
X244819Y22181D01*
X245453Y23007D01*
X245851Y23968D01*
X245987Y25000D01*
X245851Y26032D01*
X245453Y26993D01*
X244819Y27819D01*
X243993Y28453D01*
X243032Y28851D01*
X242000Y28987D01*
X240968Y28851D01*
X240759Y28764D01*
X238984Y30539D01*
Y31701D01*
X239484Y31948D01*
X240007Y31547D01*
X240968Y31149D01*
X242000Y31013D01*
X243032Y31149D01*
X243241Y31236D01*
X243446Y31030D01*
X243446Y31030D01*
X252716Y21761D01*
Y18326D01*
X252606Y18281D01*
X251821Y17679D01*
X251219Y16894D01*
X250841Y15980D01*
X250712Y15000D01*
X250841Y14019D01*
X251219Y13106D01*
X251821Y12321D01*
X252606Y11719D01*
X253520Y11341D01*
X254500Y11212D01*
X255481Y11341D01*
X256394Y11719D01*
X257179Y12321D01*
X257781Y13106D01*
X258159Y14019D01*
X258288Y15000D01*
X258159Y15980D01*
X257781Y16894D01*
X257179Y17679D01*
X256394Y18281D01*
X256284Y18326D01*
Y22500D01*
X256284Y22500D01*
X256149Y23183D01*
X255762Y23762D01*
X255762Y23762D01*
X249478Y30046D01*
X249669Y30507D01*
X297319D01*
X298002Y30643D01*
X298581Y31030D01*
X303433Y35882D01*
X303969Y35660D01*
X305169Y35502D01*
X306370Y35660D01*
X307489Y36124D01*
X308450Y36861D01*
X309188Y37822D01*
X309651Y38941D01*
X309809Y40142D01*
X309651Y41343D01*
X309188Y42462D01*
X308450Y43423D01*
X307489Y44160D01*
X307113Y44316D01*
X307212Y44816D01*
X311752D01*
X314689Y41878D01*
X314467Y41343D01*
X314309Y40142D01*
X314467Y38941D01*
X314931Y37822D01*
X315668Y36861D01*
X316629Y36124D01*
X317748Y35660D01*
X318949Y35502D01*
X320150Y35660D01*
X321269Y36124D01*
X322230Y36861D01*
X322967Y37822D01*
X323430Y38941D01*
X323588Y40142D01*
X323430Y41343D01*
X322967Y42462D01*
X322230Y43423D01*
X321269Y44160D01*
X320150Y44623D01*
X318949Y44782D01*
X317748Y44623D01*
X317212Y44402D01*
X313752Y47862D01*
X313173Y48248D01*
X312491Y48384D01*
X308860D01*
X308613Y48884D01*
X309188Y49633D01*
X309409Y50169D01*
X314709D01*
X314931Y49633D01*
X315668Y48672D01*
X316629Y47935D01*
X317748Y47471D01*
X318949Y47313D01*
X320150Y47471D01*
X321269Y47935D01*
X322230Y48672D01*
X322967Y49633D01*
X323430Y50752D01*
X323588Y51953D01*
X323430Y53154D01*
X322967Y54273D01*
X322230Y55234D01*
X321269Y55971D01*
X320150Y56434D01*
X318949Y56593D01*
X317748Y56434D01*
X316629Y55971D01*
X315668Y55234D01*
X314931Y54273D01*
X314709Y53737D01*
X309409D01*
X309188Y54273D01*
X308450Y55234D01*
X307489Y55971D01*
X306370Y56434D01*
X305169Y56593D01*
X303969Y56434D01*
X302850Y55971D01*
X301889Y55234D01*
X301151Y54273D01*
X300929Y53737D01*
X295630D01*
X295408Y54273D01*
X294671Y55234D01*
X293710Y55971D01*
X292591Y56434D01*
X291390Y56593D01*
X290189Y56434D01*
X289070Y55971D01*
X288109Y55234D01*
X287372Y54273D01*
X286908Y53154D01*
X286784Y52212D01*
X286284Y52245D01*
Y53800D01*
X286284Y53800D01*
X286149Y54483D01*
X285762Y55062D01*
X285762Y55062D01*
X279362Y61462D01*
X278783Y61848D01*
X278100Y61984D01*
X245299D01*
X245052Y62484D01*
X245453Y63007D01*
X245851Y63968D01*
X245987Y65000D01*
X245851Y66032D01*
X245453Y66993D01*
X244819Y67819D01*
X243993Y68453D01*
X243032Y68851D01*
X242000Y68987D01*
D02*
G37*
G36*
X211500Y58921D02*
X210968Y58851D01*
X210007Y58453D01*
X209181Y57819D01*
X208547Y56993D01*
X208149Y56032D01*
X208079Y55500D01*
X211500D01*
Y58921D01*
D02*
G37*
G36*
X19500Y56570D02*
X18930Y56494D01*
X17932Y56081D01*
X17076Y55424D01*
X16419Y54568D01*
X16005Y53570D01*
X15930Y53000D01*
X19500D01*
Y56570D01*
D02*
G37*
G36*
X20500D02*
Y53000D01*
X24070D01*
X23994Y53570D01*
X23581Y54568D01*
X22924Y55424D01*
X22068Y56081D01*
X21070Y56494D01*
X20500Y56570D01*
D02*
G37*
G36*
X205100Y155700D02*
X202136D01*
X202190Y155286D01*
X202543Y154435D01*
X203104Y153704D01*
X203835Y153143D01*
X204686Y152790D01*
X205100Y152736D01*
Y155700D01*
D02*
G37*
G36*
X251500Y221872D02*
Y218000D01*
X255372D01*
X255287Y218649D01*
X254843Y219719D01*
X254138Y220638D01*
X253219Y221343D01*
X252149Y221787D01*
X251500Y221872D01*
D02*
G37*
G36*
X329500Y221569D02*
Y218000D01*
X333069D01*
X332995Y218570D01*
X332581Y219568D01*
X331924Y220424D01*
X331068Y221081D01*
X330070Y221495D01*
X329500Y221569D01*
D02*
G37*
G36*
X250500Y221872D02*
X249851Y221787D01*
X248781Y221343D01*
X247862Y220638D01*
X247157Y219719D01*
X246713Y218649D01*
X246628Y218000D01*
X250500D01*
Y221872D01*
D02*
G37*
G36*
X328500Y221569D02*
X327930Y221495D01*
X326932Y221081D01*
X326076Y220424D01*
X325419Y219568D01*
X325006Y218570D01*
X324931Y218000D01*
X328500D01*
Y221569D01*
D02*
G37*
G36*
X343000D02*
X342430Y221495D01*
X341432Y221081D01*
X340576Y220424D01*
X339919Y219568D01*
X339506Y218570D01*
X339430Y218000D01*
X343000D01*
Y221569D01*
D02*
G37*
G36*
X344000D02*
Y218000D01*
X347569D01*
X347495Y218570D01*
X347081Y219568D01*
X346424Y220424D01*
X345568Y221081D01*
X344570Y221495D01*
X344000Y221569D01*
D02*
G37*
G36*
X315372Y227000D02*
X311500D01*
Y223128D01*
X312149Y223213D01*
X313219Y223657D01*
X314138Y224362D01*
X314843Y225281D01*
X315287Y226351D01*
X315372Y227000D01*
D02*
G37*
G36*
X310500Y231872D02*
X309851Y231787D01*
X308781Y231343D01*
X307862Y230638D01*
X307157Y229719D01*
X306713Y228649D01*
X306628Y228000D01*
X310500D01*
Y231872D01*
D02*
G37*
G36*
Y227000D02*
X306628D01*
X306713Y226351D01*
X307157Y225281D01*
X307862Y224362D01*
X308781Y223657D01*
X309851Y223213D01*
X310500Y223128D01*
Y227000D01*
D02*
G37*
G36*
X402500Y257838D02*
X400172Y257686D01*
X397883Y257230D01*
X395674Y256480D01*
X393581Y255448D01*
X391641Y254152D01*
X389886Y252613D01*
X388348Y250859D01*
X387052Y248919D01*
X386020Y246826D01*
X385270Y244617D01*
X384814Y242328D01*
X384662Y240000D01*
X384814Y237672D01*
X385270Y235383D01*
X386020Y233174D01*
X387052Y231081D01*
X388348Y229141D01*
X389886Y227386D01*
X391641Y225848D01*
X393581Y224552D01*
X395674Y223520D01*
X397883Y222770D01*
X400172Y222314D01*
X402500Y222162D01*
X404828Y222314D01*
X407117Y222770D01*
X409326Y223520D01*
X411419Y224552D01*
X413359Y225848D01*
X415113Y227386D01*
X416652Y229141D01*
X417948Y231081D01*
X418980Y233174D01*
X419730Y235383D01*
X420186Y237672D01*
X420338Y240000D01*
X420186Y242328D01*
X419730Y244617D01*
X418980Y246826D01*
X417948Y248919D01*
X416652Y250859D01*
X415113Y252613D01*
X413359Y254152D01*
X411419Y255448D01*
X409326Y256480D01*
X407117Y257230D01*
X404828Y257686D01*
X402500Y257838D01*
D02*
G37*
G36*
X251000Y231938D02*
X249851Y231787D01*
X248781Y231343D01*
X247862Y230638D01*
X247157Y229719D01*
X246713Y228649D01*
X246562Y227500D01*
X246713Y226351D01*
X247157Y225281D01*
X247862Y224362D01*
X248781Y223657D01*
X249851Y223213D01*
X251000Y223062D01*
X252149Y223213D01*
X253219Y223657D01*
X254138Y224362D01*
X254843Y225281D01*
X255287Y226351D01*
X255438Y227500D01*
X255287Y228649D01*
X254843Y229719D01*
X254138Y230638D01*
X253219Y231343D01*
X252149Y231787D01*
X251000Y231938D01*
D02*
G37*
G36*
X417500Y216223D02*
Y213000D01*
X420722D01*
X420659Y213480D01*
X420281Y214394D01*
X419679Y215179D01*
X418894Y215781D01*
X417980Y216159D01*
X417500Y216223D01*
D02*
G37*
G36*
X250500Y217000D02*
X246628D01*
X246713Y216351D01*
X247157Y215281D01*
X247862Y214362D01*
X248781Y213657D01*
X249851Y213213D01*
X250500Y213128D01*
Y217000D01*
D02*
G37*
G36*
X416500Y216223D02*
X416019Y216159D01*
X415106Y215781D01*
X414321Y215179D01*
X413719Y214394D01*
X413341Y213480D01*
X413277Y213000D01*
X416500D01*
Y216223D01*
D02*
G37*
G36*
X420722Y212000D02*
X417500D01*
Y208777D01*
X417980Y208841D01*
X418894Y209219D01*
X419679Y209821D01*
X420281Y210606D01*
X420659Y211520D01*
X420722Y212000D01*
D02*
G37*
G36*
X43500Y219020D02*
X38000D01*
Y212500D01*
X44520D01*
Y218000D01*
X44442Y218390D01*
X44221Y218721D01*
X43890Y218942D01*
X43500Y219020D01*
D02*
G37*
G36*
X255372Y217000D02*
X251500D01*
Y213128D01*
X252149Y213213D01*
X253219Y213657D01*
X254138Y214362D01*
X254843Y215281D01*
X255287Y216351D01*
X255372Y217000D01*
D02*
G37*
G36*
X347569D02*
X344000D01*
Y213431D01*
X344570Y213506D01*
X345568Y213919D01*
X346424Y214576D01*
X347081Y215432D01*
X347495Y216430D01*
X347569Y217000D01*
D02*
G37*
G36*
X115200Y248097D02*
X112807Y247909D01*
X110473Y247348D01*
X108255Y246430D01*
X106209Y245176D01*
X104383Y243617D01*
X102824Y241791D01*
X101570Y239745D01*
X100652Y237527D01*
X100091Y235193D01*
X99903Y232800D01*
X100091Y230407D01*
X100652Y228073D01*
X101570Y225855D01*
X102824Y223809D01*
X104383Y221983D01*
X106209Y220424D01*
X108255Y219170D01*
X110473Y218251D01*
X112807Y217691D01*
X115200Y217503D01*
X117593Y217691D01*
X119927Y218251D01*
X122145Y219170D01*
X124191Y220424D01*
X126017Y221983D01*
X127576Y223809D01*
X128830Y225855D01*
X129748Y228073D01*
X130309Y230407D01*
X130497Y232800D01*
X130309Y235193D01*
X129748Y237527D01*
X128830Y239745D01*
X127576Y241791D01*
X126017Y243617D01*
X124191Y245176D01*
X122145Y246430D01*
X119927Y247348D01*
X117593Y247909D01*
X115200Y248097D01*
D02*
G37*
G36*
X333069Y217000D02*
X329500D01*
Y213431D01*
X330070Y213506D01*
X331068Y213919D01*
X331924Y214576D01*
X332581Y215432D01*
X332995Y216430D01*
X333069Y217000D01*
D02*
G37*
G36*
X328500D02*
X324931D01*
X325006Y216430D01*
X325419Y215432D01*
X326076Y214576D01*
X326932Y213919D01*
X327930Y213506D01*
X328500Y213431D01*
Y217000D01*
D02*
G37*
G36*
X343000D02*
X339430D01*
X339506Y216430D01*
X339919Y215432D01*
X340576Y214576D01*
X341432Y213919D01*
X342430Y213506D01*
X343000Y213431D01*
Y217000D01*
D02*
G37*
G36*
X311500Y231872D02*
Y228000D01*
X315372D01*
X315287Y228649D01*
X314843Y229719D01*
X314138Y230638D01*
X313219Y231343D01*
X312149Y231787D01*
X311500Y231872D01*
D02*
G37*
G36*
X58000Y246469D02*
Y243000D01*
X61469D01*
X61397Y243544D01*
X60994Y244517D01*
X60353Y245353D01*
X59517Y245994D01*
X58544Y246397D01*
X58000Y246469D01*
D02*
G37*
G36*
X145000Y251288D02*
X144019Y251159D01*
X143106Y250781D01*
X142321Y250179D01*
X141719Y249394D01*
X141341Y248481D01*
X141212Y247500D01*
X141341Y246519D01*
X141719Y245606D01*
X142321Y244821D01*
X143106Y244219D01*
X144019Y243841D01*
X145000Y243712D01*
X145981Y243841D01*
X146894Y244219D01*
X147679Y244821D01*
X148281Y245606D01*
X148659Y246519D01*
X148788Y247500D01*
X148659Y248481D01*
X148281Y249394D01*
X147679Y250179D01*
X146894Y250781D01*
X145981Y251159D01*
X145000Y251288D01*
D02*
G37*
G36*
X57000Y246469D02*
X56456Y246397D01*
X55483Y245994D01*
X54647Y245353D01*
X54006Y244517D01*
X53603Y243544D01*
X53531Y243000D01*
X57000D01*
Y246469D01*
D02*
G37*
G36*
Y242000D02*
X53531D01*
X53603Y241456D01*
X54006Y240483D01*
X54647Y239647D01*
X55483Y239006D01*
X56456Y238603D01*
X57000Y238531D01*
Y242000D01*
D02*
G37*
G36*
X61469D02*
X58000D01*
Y238531D01*
X58544Y238603D01*
X59517Y239006D01*
X60353Y239647D01*
X60994Y240483D01*
X61397Y241456D01*
X61469Y242000D01*
D02*
G37*
G36*
X227000Y251827D02*
X224547D01*
X224157Y251749D01*
X223826Y251528D01*
X223605Y251197D01*
X223528Y250807D01*
Y248354D01*
X227000D01*
Y251827D01*
D02*
G37*
G36*
X354500Y256223D02*
X354019Y256159D01*
X353106Y255781D01*
X352321Y255179D01*
X351719Y254394D01*
X351341Y253481D01*
X351277Y253000D01*
X354500D01*
Y256223D01*
D02*
G37*
G36*
X355500D02*
Y253000D01*
X358722D01*
X358659Y253481D01*
X358281Y254394D01*
X357679Y255179D01*
X356894Y255781D01*
X355980Y256159D01*
X355500Y256223D01*
D02*
G37*
G36*
X358722Y252000D02*
X355500D01*
Y248778D01*
X355980Y248841D01*
X356894Y249219D01*
X357679Y249821D01*
X358281Y250606D01*
X358659Y251519D01*
X358722Y252000D01*
D02*
G37*
G36*
X230453Y251827D02*
X228000D01*
Y248354D01*
X231472D01*
Y250807D01*
X231395Y251197D01*
X231174Y251528D01*
X230843Y251749D01*
X230453Y251827D01*
D02*
G37*
G36*
X354500Y252000D02*
X351277D01*
X351341Y251519D01*
X351719Y250606D01*
X352321Y249821D01*
X353106Y249219D01*
X354019Y248841D01*
X354500Y248778D01*
Y252000D01*
D02*
G37*
G36*
X153000Y236223D02*
Y233000D01*
X156222D01*
X156159Y233481D01*
X155781Y234394D01*
X155179Y235179D01*
X154394Y235781D01*
X153481Y236159D01*
X153000Y236223D01*
D02*
G37*
G36*
X311000Y241938D02*
X309851Y241787D01*
X308781Y241343D01*
X307862Y240638D01*
X307157Y239719D01*
X306713Y238649D01*
X306562Y237500D01*
X306713Y236351D01*
X307157Y235281D01*
X307862Y234362D01*
X308781Y233657D01*
X309851Y233213D01*
X311000Y233062D01*
X312149Y233213D01*
X313219Y233657D01*
X314138Y234362D01*
X314843Y235281D01*
X315287Y236351D01*
X315438Y237500D01*
X315287Y238649D01*
X314843Y239719D01*
X314138Y240638D01*
X313219Y241343D01*
X312149Y241787D01*
X311000Y241938D01*
D02*
G37*
G36*
X152000Y236223D02*
X151520Y236159D01*
X150606Y235781D01*
X149821Y235179D01*
X149219Y234394D01*
X148841Y233481D01*
X148777Y233000D01*
X152000D01*
Y236223D01*
D02*
G37*
G36*
Y232000D02*
X148777D01*
X148841Y231520D01*
X149219Y230606D01*
X149821Y229821D01*
X150606Y229219D01*
X151520Y228841D01*
X152000Y228778D01*
Y232000D01*
D02*
G37*
G36*
X156222D02*
X153000D01*
Y228778D01*
X153481Y228841D01*
X154394Y229219D01*
X155179Y229821D01*
X155781Y230606D01*
X156159Y231520D01*
X156222Y232000D01*
D02*
G37*
G36*
X325000Y241635D02*
X323930Y241494D01*
X322932Y241081D01*
X322076Y240424D01*
X321419Y239568D01*
X321006Y238570D01*
X320865Y237500D01*
X321006Y236430D01*
X321419Y235432D01*
X322076Y234576D01*
X322932Y233919D01*
X323930Y233506D01*
X325000Y233365D01*
X326070Y233506D01*
X327068Y233919D01*
X327924Y234576D01*
X328581Y235432D01*
X328994Y236430D01*
X329135Y237500D01*
X328994Y238570D01*
X328581Y239568D01*
X327924Y240424D01*
X327068Y241081D01*
X326070Y241494D01*
X325000Y241635D01*
D02*
G37*
G36*
X345500Y241569D02*
Y238000D01*
X349069D01*
X348994Y238570D01*
X348581Y239568D01*
X347924Y240424D01*
X347068Y241081D01*
X346070Y241494D01*
X345500Y241569D01*
D02*
G37*
G36*
X22500Y257838D02*
X20172Y257686D01*
X17883Y257230D01*
X15674Y256480D01*
X13581Y255448D01*
X11641Y254152D01*
X9887Y252613D01*
X8348Y250859D01*
X7052Y248919D01*
X6020Y246826D01*
X5270Y244617D01*
X4814Y242328D01*
X4662Y240000D01*
X4814Y237672D01*
X5270Y235383D01*
X6020Y233174D01*
X7052Y231081D01*
X8348Y229141D01*
X9887Y227386D01*
X11641Y225848D01*
X13581Y224552D01*
X15674Y223520D01*
X17883Y222770D01*
X20172Y222314D01*
X22500Y222162D01*
X24828Y222314D01*
X24891Y222327D01*
X25126Y221886D01*
X24766Y221526D01*
X23500D01*
X23500Y221526D01*
X22717Y221423D01*
X21987Y221121D01*
X21360Y220640D01*
X19435Y218714D01*
X19019Y218659D01*
X18106Y218281D01*
X17321Y217679D01*
X16719Y216894D01*
X16341Y215981D01*
X16212Y215000D01*
X16341Y214019D01*
X16719Y213106D01*
X16722Y213102D01*
Y191000D01*
X16778Y190576D01*
X16834Y190152D01*
X17161Y189361D01*
X17682Y188682D01*
X27682Y178682D01*
X28361Y178161D01*
X29152Y177834D01*
X30000Y177722D01*
X32172D01*
X32272Y177222D01*
X31932Y177081D01*
X31076Y176424D01*
X30419Y175568D01*
X30005Y174570D01*
X29930Y174000D01*
X38069D01*
X37995Y174570D01*
X37581Y175568D01*
X36924Y176424D01*
X36068Y177081D01*
X35728Y177222D01*
X35828Y177722D01*
X42500D01*
X42924Y177778D01*
X43348Y177834D01*
X44139Y178161D01*
X44818Y178682D01*
X47858Y181722D01*
X180602D01*
X180606Y181719D01*
X181519Y181341D01*
X182500Y181212D01*
X183481Y181341D01*
X184394Y181719D01*
X185179Y182321D01*
X185781Y183106D01*
X186159Y184019D01*
X186288Y185000D01*
X186159Y185980D01*
X185781Y186894D01*
X185179Y187679D01*
X184394Y188281D01*
X183481Y188659D01*
X182500Y188788D01*
X181519Y188659D01*
X180606Y188281D01*
X180602Y188278D01*
X46500D01*
X45652Y188166D01*
X44861Y187839D01*
X44182Y187318D01*
X41142Y184278D01*
X31358D01*
X23278Y192358D01*
Y213102D01*
X23281Y213106D01*
X23659Y214019D01*
X23714Y214435D01*
X24753Y215474D01*
X25663D01*
X26446Y215577D01*
X27176Y215880D01*
X27803Y216360D01*
X28284Y216987D01*
X28433Y217347D01*
X29697Y218612D01*
X29764D01*
X30141Y218661D01*
X30238Y218598D01*
X30522Y218207D01*
X30480Y218000D01*
Y212500D01*
X37000D01*
Y219020D01*
X35878D01*
X35846Y219520D01*
X36283Y219577D01*
X37013Y219880D01*
X37640Y220360D01*
X48640Y231360D01*
X49121Y231987D01*
X49423Y232717D01*
X49526Y233500D01*
Y241747D01*
X56253Y248474D01*
X61047D01*
X67280Y242240D01*
Y239500D01*
X67358Y239110D01*
X67579Y238779D01*
X67910Y238558D01*
X68300Y238480D01*
X74300D01*
X74690Y238558D01*
X75021Y238779D01*
X75242Y239110D01*
X75320Y239500D01*
Y245500D01*
X75242Y245890D01*
X75021Y246221D01*
X74690Y246442D01*
X74300Y246520D01*
X71560D01*
X64440Y253640D01*
X63813Y254120D01*
X63083Y254423D01*
X62300Y254526D01*
X55000D01*
X55000Y254526D01*
X54217Y254423D01*
X53487Y254120D01*
X52860Y253640D01*
X52860Y253640D01*
X44360Y245140D01*
X43880Y244513D01*
X43577Y243783D01*
X43474Y243000D01*
Y234753D01*
X34247Y225526D01*
X33750D01*
X33562Y226026D01*
X35113Y227386D01*
X36652Y229141D01*
X37948Y231081D01*
X38980Y233174D01*
X39730Y235383D01*
X40186Y237672D01*
X40338Y240000D01*
X40186Y242328D01*
X39730Y244617D01*
X38980Y246826D01*
X37948Y248919D01*
X36652Y250859D01*
X35113Y252613D01*
X33359Y254152D01*
X31419Y255448D01*
X29326Y256480D01*
X27117Y257230D01*
X24828Y257686D01*
X22500Y257838D01*
D02*
G37*
G36*
X344500Y241569D02*
X343930Y241494D01*
X342932Y241081D01*
X342076Y240424D01*
X341419Y239568D01*
X341005Y238570D01*
X340931Y238000D01*
X344500D01*
Y241569D01*
D02*
G37*
G36*
Y237000D02*
X340931D01*
X341005Y236430D01*
X341419Y235432D01*
X342076Y234576D01*
X342932Y233919D01*
X343930Y233506D01*
X344500Y233431D01*
Y237000D01*
D02*
G37*
G36*
X349069D02*
X345500D01*
Y233431D01*
X346070Y233506D01*
X347068Y233919D01*
X347924Y234576D01*
X348581Y235432D01*
X348994Y236430D01*
X349069Y237000D01*
D02*
G37*
G36*
X202953Y180118D02*
X197047D01*
X196657Y180040D01*
X196326Y179819D01*
X196105Y179489D01*
X196028Y179098D01*
Y173193D01*
X196105Y172803D01*
X196326Y172472D01*
X196657Y172251D01*
X197047Y172173D01*
X202953D01*
X203343Y172251D01*
X203674Y172472D01*
X203895Y172803D01*
X203972Y173193D01*
Y179098D01*
X203895Y179489D01*
X203674Y179819D01*
X203343Y180040D01*
X202953Y180118D01*
D02*
G37*
G36*
X311000Y181938D02*
X309851Y181787D01*
X308781Y181343D01*
X307862Y180638D01*
X307157Y179719D01*
X306713Y178649D01*
X306562Y177500D01*
X306713Y176351D01*
X307157Y175281D01*
X307862Y174362D01*
X308781Y173657D01*
X309851Y173213D01*
X311000Y173062D01*
X312149Y173213D01*
X313219Y173657D01*
X314138Y174362D01*
X314843Y175281D01*
X315287Y176351D01*
X315438Y177500D01*
X315287Y178649D01*
X314843Y179719D01*
X314138Y180638D01*
X313219Y181343D01*
X312149Y181787D01*
X311000Y181938D01*
D02*
G37*
G36*
X38069Y173000D02*
X34500D01*
Y169430D01*
X35070Y169506D01*
X36068Y169919D01*
X36924Y170576D01*
X37581Y171432D01*
X37995Y172430D01*
X38069Y173000D01*
D02*
G37*
G36*
X54000Y177635D02*
X52930Y177495D01*
X51932Y177081D01*
X51076Y176424D01*
X50419Y175568D01*
X50006Y174570D01*
X49865Y173500D01*
X50006Y172430D01*
X50419Y171432D01*
X51076Y170576D01*
X51932Y169919D01*
X52930Y169506D01*
X54000Y169365D01*
X55070Y169506D01*
X56068Y169919D01*
X56924Y170576D01*
X57581Y171432D01*
X57995Y172430D01*
X58135Y173500D01*
X57995Y174570D01*
X57581Y175568D01*
X56924Y176424D01*
X56068Y177081D01*
X55070Y177495D01*
X54000Y177635D01*
D02*
G37*
G36*
X33500Y173000D02*
X29930D01*
X30005Y172430D01*
X30419Y171432D01*
X31076Y170576D01*
X31932Y169919D01*
X32930Y169506D01*
X33500Y169430D01*
Y173000D01*
D02*
G37*
G36*
X216000Y177070D02*
X215430Y176995D01*
X214432Y176581D01*
X213576Y175924D01*
X212919Y175068D01*
X212506Y174070D01*
X212431Y173500D01*
X216000D01*
Y177070D01*
D02*
G37*
G36*
X37500Y199034D02*
X36128Y198899D01*
X34808Y198498D01*
X33592Y197848D01*
X32526Y196974D01*
X31651Y195908D01*
X31001Y194692D01*
X30601Y193372D01*
X30466Y192000D01*
X30601Y190628D01*
X31001Y189308D01*
X31651Y188092D01*
X32526Y187026D01*
X33592Y186152D01*
X34808Y185502D01*
X36128Y185101D01*
X37500Y184966D01*
X38872Y185101D01*
X40192Y185502D01*
X41408Y186152D01*
X42474Y187026D01*
X43349Y188092D01*
X43999Y189308D01*
X44399Y190628D01*
X44534Y192000D01*
X44399Y193372D01*
X43999Y194692D01*
X43349Y195908D01*
X42474Y196974D01*
X41408Y197848D01*
X40192Y198498D01*
X38872Y198899D01*
X37500Y199034D01*
D02*
G37*
G36*
X239500Y193500D02*
X236536D01*
X236590Y193086D01*
X236943Y192235D01*
X237504Y191504D01*
X238235Y190943D01*
X239086Y190590D01*
X239500Y190536D01*
Y193500D01*
D02*
G37*
G36*
X251000Y191938D02*
X249851Y191787D01*
X248781Y191343D01*
X247862Y190638D01*
X247157Y189719D01*
X246713Y188649D01*
X246562Y187500D01*
X246713Y186351D01*
X247157Y185281D01*
X247862Y184362D01*
X248781Y183657D01*
X249851Y183213D01*
X251000Y183062D01*
X252149Y183213D01*
X253219Y183657D01*
X254138Y184362D01*
X254843Y185281D01*
X255287Y186351D01*
X255438Y187500D01*
X255287Y188649D01*
X254843Y189719D01*
X254138Y190638D01*
X253219Y191343D01*
X252149Y191787D01*
X251000Y191938D01*
D02*
G37*
G36*
X217000Y177070D02*
Y173500D01*
X220569D01*
X220495Y174070D01*
X220081Y175068D01*
X219424Y175924D01*
X218568Y176581D01*
X217570Y176995D01*
X217000Y177070D01*
D02*
G37*
G36*
X342500Y184135D02*
X341430Y183994D01*
X340432Y183581D01*
X339576Y182924D01*
X338919Y182068D01*
X338506Y181070D01*
X338365Y180000D01*
X338436Y179459D01*
X330090Y171114D01*
X329980Y171159D01*
X329000Y171288D01*
X328019Y171159D01*
X327106Y170781D01*
X326321Y170179D01*
X325719Y169394D01*
X325674Y169284D01*
X315023D01*
X314843Y169719D01*
X314138Y170638D01*
X313219Y171343D01*
X312149Y171787D01*
X311000Y171938D01*
X309851Y171787D01*
X308781Y171343D01*
X307862Y170638D01*
X307157Y169719D01*
X306713Y168649D01*
X306562Y167500D01*
X306713Y166351D01*
X307157Y165281D01*
X307862Y164362D01*
X308781Y163657D01*
X309851Y163213D01*
X311000Y163062D01*
X312149Y163213D01*
X313219Y163657D01*
X314138Y164362D01*
X314843Y165281D01*
X315023Y165716D01*
X325674D01*
X325719Y165606D01*
X326321Y164821D01*
X327106Y164219D01*
X328019Y163841D01*
X329000Y163712D01*
X329980Y163841D01*
X330894Y164219D01*
X331679Y164821D01*
X332281Y165606D01*
X332659Y166519D01*
X332788Y167500D01*
X332659Y168481D01*
X332614Y168590D01*
X340439Y176416D01*
X341430Y176005D01*
X342500Y175865D01*
X343570Y176005D01*
X344568Y176419D01*
X345424Y177076D01*
X346081Y177932D01*
X346495Y178930D01*
X346635Y180000D01*
X346495Y181070D01*
X346081Y182068D01*
X345424Y182924D01*
X344568Y183581D01*
X343570Y183994D01*
X342500Y184135D01*
D02*
G37*
G36*
X220569Y172500D02*
X217000D01*
Y168930D01*
X217570Y169006D01*
X218568Y169419D01*
X219424Y170076D01*
X220081Y170932D01*
X220495Y171930D01*
X220569Y172500D01*
D02*
G37*
G36*
X342000Y159500D02*
X338431D01*
X338506Y158930D01*
X338919Y157932D01*
X339576Y157076D01*
X340432Y156419D01*
X341430Y156006D01*
X342000Y155930D01*
Y159500D01*
D02*
G37*
G36*
X346569D02*
X343000D01*
Y155930D01*
X343570Y156006D01*
X344568Y156419D01*
X345424Y157076D01*
X346081Y157932D01*
X346495Y158930D01*
X346569Y159500D01*
D02*
G37*
G36*
X311000Y161938D02*
X309851Y161787D01*
X308781Y161343D01*
X307862Y160638D01*
X307157Y159719D01*
X306713Y158649D01*
X306562Y157500D01*
X306713Y156351D01*
X307157Y155281D01*
X307862Y154362D01*
X308781Y153657D01*
X309851Y153213D01*
X311000Y153062D01*
X312149Y153213D01*
X313219Y153657D01*
X314138Y154362D01*
X314843Y155281D01*
X315287Y156351D01*
X315438Y157500D01*
X315287Y158649D01*
X314843Y159719D01*
X314138Y160638D01*
X313219Y161343D01*
X312149Y161787D01*
X311000Y161938D01*
D02*
G37*
G36*
X209064Y155700D02*
X206100D01*
Y152736D01*
X206514Y152790D01*
X207365Y153143D01*
X208096Y153704D01*
X208657Y154435D01*
X209010Y155286D01*
X209064Y155700D01*
D02*
G37*
G36*
X251000Y161938D02*
X249851Y161787D01*
X248781Y161343D01*
X247862Y160638D01*
X247157Y159719D01*
X246713Y158649D01*
X246562Y157500D01*
X246713Y156351D01*
X247157Y155281D01*
X247862Y154362D01*
X248781Y153657D01*
X249851Y153213D01*
X251000Y153062D01*
X252149Y153213D01*
X253219Y153657D01*
X254138Y154362D01*
X254843Y155281D01*
X255287Y156351D01*
X255438Y157500D01*
X255287Y158649D01*
X254843Y159719D01*
X254138Y160638D01*
X253219Y161343D01*
X252149Y161787D01*
X251000Y161938D01*
D02*
G37*
G36*
X205100Y159664D02*
X204686Y159610D01*
X203835Y159257D01*
X203104Y158696D01*
X202543Y157965D01*
X202190Y157114D01*
X202136Y156700D01*
X205100D01*
Y159664D01*
D02*
G37*
G36*
X343000Y164070D02*
Y160500D01*
X346569D01*
X346495Y161070D01*
X346081Y162068D01*
X345424Y162924D01*
X344568Y163581D01*
X343570Y163995D01*
X343000Y164070D01*
D02*
G37*
G36*
X216000Y172500D02*
X212431D01*
X212506Y171930D01*
X212919Y170932D01*
X213576Y170076D01*
X214432Y169419D01*
X215430Y169006D01*
X216000Y168930D01*
Y172500D01*
D02*
G37*
G36*
X342000Y164070D02*
X341430Y163995D01*
X340432Y163581D01*
X339576Y162924D01*
X338919Y162068D01*
X338506Y161070D01*
X338431Y160500D01*
X342000D01*
Y164070D01*
D02*
G37*
G36*
X206100Y159664D02*
Y156700D01*
X209064D01*
X209010Y157114D01*
X208657Y157965D01*
X208096Y158696D01*
X207365Y159257D01*
X206514Y159610D01*
X206100Y159664D01*
D02*
G37*
G36*
X20000Y178788D02*
X19019Y178659D01*
X18106Y178281D01*
X17321Y177679D01*
X16719Y176894D01*
X16341Y175980D01*
X16212Y175000D01*
X16341Y174020D01*
X16719Y173106D01*
X16722Y173102D01*
Y171839D01*
X16778Y171414D01*
X16834Y170990D01*
X17161Y170200D01*
X17682Y169521D01*
X35380Y151822D01*
Y148239D01*
X35398Y148151D01*
X35240Y147690D01*
X35053Y147555D01*
X34487Y147320D01*
X33860Y146840D01*
X33860Y146840D01*
X31260Y144240D01*
X30779Y143613D01*
X30477Y142883D01*
X30374Y142100D01*
Y117100D01*
X30477Y116317D01*
X30779Y115587D01*
X31260Y114960D01*
X35402Y110819D01*
X35360Y110500D01*
X35518Y109299D01*
X35982Y108180D01*
X36719Y107219D01*
X37680Y106482D01*
X38799Y106018D01*
X40000Y105860D01*
X41201Y106018D01*
X42320Y106482D01*
X43281Y107219D01*
X44018Y108180D01*
X44482Y109299D01*
X44640Y110500D01*
X44482Y111701D01*
X44018Y112820D01*
X43281Y113781D01*
X42320Y114518D01*
X41201Y114982D01*
X40000Y115140D01*
X39682Y115098D01*
X36426Y118353D01*
Y120594D01*
X36926Y120840D01*
X37680Y120262D01*
X38799Y119798D01*
X40000Y119640D01*
X41201Y119798D01*
X42320Y120262D01*
X43281Y120999D01*
X44018Y121960D01*
X44482Y123079D01*
X44640Y124280D01*
X44482Y125480D01*
X44260Y126016D01*
X46159Y127916D01*
X48222D01*
X48419Y127416D01*
X47793Y126599D01*
X47329Y125480D01*
X47237Y124780D01*
X51811D01*
X56385D01*
X56293Y125480D01*
X55829Y126599D01*
X55203Y127416D01*
X55400Y127916D01*
X59661D01*
X68738Y118838D01*
X69317Y118451D01*
X70000Y118316D01*
X321600D01*
X322283Y118451D01*
X322862Y118838D01*
X327910Y123886D01*
X328019Y123841D01*
X329000Y123712D01*
X329980Y123841D01*
X330894Y124219D01*
X331679Y124821D01*
X332281Y125606D01*
X332659Y126520D01*
X332788Y127500D01*
X332659Y128481D01*
X332614Y128590D01*
X346262Y142238D01*
X346262Y142238D01*
X346649Y142817D01*
X346784Y143500D01*
X346784Y143500D01*
Y143801D01*
X347068Y143919D01*
X347924Y144576D01*
X348581Y145432D01*
X348994Y146430D01*
X349135Y147500D01*
X348994Y148570D01*
X348581Y149568D01*
X347924Y150424D01*
X347068Y151081D01*
X346070Y151495D01*
X345000Y151635D01*
X343930Y151495D01*
X342932Y151081D01*
X342076Y150424D01*
X341419Y149568D01*
X341005Y148570D01*
X340865Y147500D01*
X341005Y146430D01*
X341419Y145432D01*
X342076Y144576D01*
X342611Y144166D01*
X342643Y143667D01*
X330090Y131114D01*
X329980Y131159D01*
X329000Y131288D01*
X328019Y131159D01*
X327106Y130781D01*
X326321Y130179D01*
X325719Y129394D01*
X325341Y128481D01*
X325212Y127500D01*
X325341Y126520D01*
X325386Y126410D01*
X320861Y121884D01*
X200907D01*
X200661Y122384D01*
X201081Y122932D01*
X201495Y123930D01*
X201635Y125000D01*
X201495Y126070D01*
X201081Y127068D01*
X200424Y127924D01*
X199568Y128581D01*
X198570Y128995D01*
X197500Y129135D01*
X196430Y128995D01*
X195432Y128581D01*
X194576Y127924D01*
X193919Y127068D01*
X193801Y126784D01*
X193239D01*
X186114Y133910D01*
X186159Y134019D01*
X186288Y135000D01*
X186159Y135980D01*
X185781Y136894D01*
X185179Y137679D01*
X184394Y138281D01*
X183481Y138659D01*
X182500Y138788D01*
X181519Y138659D01*
X180606Y138281D01*
X179821Y137679D01*
X179219Y136894D01*
X178841Y135980D01*
X178712Y135000D01*
X178841Y134019D01*
X179219Y133106D01*
X179821Y132321D01*
X180606Y131719D01*
X181519Y131341D01*
X182500Y131212D01*
X183481Y131341D01*
X183590Y131386D01*
X191238Y123738D01*
X191238Y123738D01*
X191817Y123352D01*
X192500Y123216D01*
X192500Y123216D01*
X193801D01*
X193919Y122932D01*
X194339Y122384D01*
X194093Y121884D01*
X70739D01*
X61662Y130962D01*
X61083Y131349D01*
X60400Y131484D01*
X45420D01*
X44738Y131349D01*
X44159Y130962D01*
X44159Y130962D01*
X41736Y128539D01*
X41201Y128761D01*
X40000Y128919D01*
X38799Y128761D01*
X37680Y128298D01*
X36926Y127719D01*
X36426Y127965D01*
Y134373D01*
X36926Y134620D01*
X37680Y134041D01*
X38799Y133577D01*
X39500Y133485D01*
Y138059D01*
X40000D01*
Y138559D01*
X44574D01*
X44482Y139260D01*
X44018Y140379D01*
X43592Y140934D01*
X43812Y141469D01*
X44085Y141506D01*
X47213Y138377D01*
X47171Y138059D01*
X47329Y136858D01*
X47793Y135739D01*
X48530Y134778D01*
X49491Y134041D01*
X50610Y133577D01*
X51811Y133419D01*
X53012Y133577D01*
X54131Y134041D01*
X55092Y134778D01*
X55829Y135739D01*
X56293Y136858D01*
X56451Y138059D01*
X56409Y138377D01*
X79505Y161474D01*
X195208D01*
X195932Y160919D01*
X196930Y160505D01*
X198000Y160365D01*
X199070Y160505D01*
X200068Y160919D01*
X200924Y161576D01*
X201581Y162432D01*
X201994Y163430D01*
X202135Y164500D01*
X201994Y165570D01*
X201581Y166568D01*
X200924Y167424D01*
X200068Y168081D01*
X199070Y168494D01*
X198000Y168635D01*
X196930Y168494D01*
X195932Y168081D01*
X195208Y167526D01*
X78252D01*
X77469Y167423D01*
X76739Y167121D01*
X76112Y166640D01*
X52130Y142657D01*
X51811Y142699D01*
X51493Y142657D01*
X47310Y146840D01*
X46683Y147320D01*
X45953Y147623D01*
X45170Y147726D01*
X45016D01*
X44617Y148226D01*
X44620Y148239D01*
Y155439D01*
X44542Y155829D01*
X44321Y156160D01*
X43990Y156381D01*
X43600Y156458D01*
X40016D01*
X23306Y173168D01*
X23659Y174020D01*
X23788Y175000D01*
X23659Y175980D01*
X23281Y176894D01*
X22679Y177679D01*
X21894Y178281D01*
X20980Y178659D01*
X20000Y178788D01*
D02*
G37*
G36*
X243464Y193500D02*
X240500D01*
Y190536D01*
X240914Y190590D01*
X241765Y190943D01*
X242496Y191504D01*
X243057Y192235D01*
X243410Y193086D01*
X243464Y193500D01*
D02*
G37*
G36*
X182000Y204070D02*
X181430Y203994D01*
X180432Y203581D01*
X179576Y202924D01*
X178919Y202068D01*
X178506Y201070D01*
X178430Y200500D01*
X182000D01*
Y204070D01*
D02*
G37*
G36*
X183000D02*
Y200500D01*
X186570D01*
X186495Y201070D01*
X186081Y202068D01*
X185424Y202924D01*
X184568Y203581D01*
X183570Y203994D01*
X183000Y204070D01*
D02*
G37*
G36*
X382000D02*
X381430Y203994D01*
X380432Y203581D01*
X379576Y202924D01*
X378919Y202068D01*
X378505Y201070D01*
X378431Y200500D01*
X382000D01*
Y204070D01*
D02*
G37*
G36*
X250500Y211872D02*
X249851Y211787D01*
X248781Y211343D01*
X247862Y210638D01*
X247157Y209719D01*
X246713Y208649D01*
X246628Y208000D01*
X250500D01*
Y211872D01*
D02*
G37*
G36*
X386569Y199500D02*
X383000D01*
Y195930D01*
X383570Y196005D01*
X384568Y196419D01*
X385424Y197076D01*
X386081Y197932D01*
X386494Y198930D01*
X386569Y199500D01*
D02*
G37*
G36*
X37000Y211500D02*
X30480D01*
Y206000D01*
X30558Y205610D01*
X30779Y205279D01*
X31110Y205058D01*
X31500Y204980D01*
X37000D01*
Y211500D01*
D02*
G37*
G36*
X44520D02*
X38000D01*
Y204980D01*
X43500D01*
X43890Y205058D01*
X44221Y205279D01*
X44442Y205610D01*
X44520Y206000D01*
Y211500D01*
D02*
G37*
G36*
X255372Y207000D02*
X251500D01*
Y203128D01*
X252149Y203213D01*
X253219Y203657D01*
X254138Y204362D01*
X254843Y205281D01*
X255287Y206351D01*
X255372Y207000D01*
D02*
G37*
G36*
X383000Y204070D02*
Y200500D01*
X386569D01*
X386494Y201070D01*
X386081Y202068D01*
X385424Y202924D01*
X384568Y203581D01*
X383570Y203994D01*
X383000Y204070D01*
D02*
G37*
G36*
X250500Y207000D02*
X246628D01*
X246713Y206351D01*
X247157Y205281D01*
X247862Y204362D01*
X248781Y203657D01*
X249851Y203213D01*
X250500Y203128D01*
Y207000D01*
D02*
G37*
G36*
X186570Y199500D02*
X183000D01*
Y195930D01*
X183570Y196005D01*
X184568Y196419D01*
X185424Y197076D01*
X186081Y197932D01*
X186495Y198930D01*
X186570Y199500D01*
D02*
G37*
G36*
X239500Y197464D02*
X239086Y197410D01*
X238235Y197057D01*
X237504Y196496D01*
X236943Y195765D01*
X236590Y194914D01*
X236536Y194500D01*
X239500D01*
Y197464D01*
D02*
G37*
G36*
X240500D02*
Y194500D01*
X243464D01*
X243410Y194914D01*
X243057Y195765D01*
X242496Y196496D01*
X241765Y197057D01*
X240914Y197410D01*
X240500Y197464D01*
D02*
G37*
G36*
X311000Y201938D02*
X309851Y201787D01*
X308781Y201343D01*
X307862Y200638D01*
X307157Y199719D01*
X306713Y198649D01*
X306562Y197500D01*
X306713Y196351D01*
X307157Y195281D01*
X307862Y194362D01*
X308781Y193657D01*
X309851Y193213D01*
X311000Y193062D01*
X312149Y193213D01*
X313219Y193657D01*
X314138Y194362D01*
X314843Y195281D01*
X315023Y195716D01*
X325301D01*
X325419Y195432D01*
X326076Y194576D01*
X326932Y193919D01*
X327930Y193506D01*
X329000Y193365D01*
X330070Y193506D01*
X331068Y193919D01*
X331924Y194576D01*
X332581Y195432D01*
X332699Y195716D01*
X339801D01*
X339919Y195432D01*
X340576Y194576D01*
X341432Y193919D01*
X342430Y193506D01*
X343500Y193365D01*
X344570Y193506D01*
X345568Y193919D01*
X346424Y194576D01*
X347081Y195432D01*
X347495Y196430D01*
X347635Y197500D01*
X347495Y198570D01*
X347081Y199568D01*
X346424Y200424D01*
X345568Y201081D01*
X344570Y201495D01*
X343500Y201635D01*
X342430Y201495D01*
X341432Y201081D01*
X340576Y200424D01*
X339919Y199568D01*
X339801Y199284D01*
X332699D01*
X332581Y199568D01*
X331924Y200424D01*
X331068Y201081D01*
X330070Y201495D01*
X329000Y201635D01*
X327930Y201495D01*
X326932Y201081D01*
X326076Y200424D01*
X325419Y199568D01*
X325301Y199284D01*
X315023D01*
X314843Y199719D01*
X314138Y200638D01*
X313219Y201343D01*
X312149Y201787D01*
X311000Y201938D01*
D02*
G37*
G36*
X416500Y212000D02*
X413277D01*
X413341Y211520D01*
X413719Y210606D01*
X414321Y209821D01*
X415106Y209219D01*
X416019Y208841D01*
X416500Y208777D01*
Y212000D01*
D02*
G37*
G36*
X251000Y201938D02*
X249851Y201787D01*
X248781Y201343D01*
X247862Y200638D01*
X247157Y199719D01*
X246713Y198649D01*
X246562Y197500D01*
X246713Y196351D01*
X247157Y195281D01*
X247862Y194362D01*
X248781Y193657D01*
X249851Y193213D01*
X251000Y193062D01*
X252149Y193213D01*
X253219Y193657D01*
X254138Y194362D01*
X254843Y195281D01*
X255287Y196351D01*
X255438Y197500D01*
X255287Y198649D01*
X254843Y199719D01*
X254138Y200638D01*
X253219Y201343D01*
X252149Y201787D01*
X251000Y201938D01*
D02*
G37*
G36*
X382000Y199500D02*
X378431D01*
X378505Y198930D01*
X378919Y197932D01*
X379576Y197076D01*
X380432Y196419D01*
X381430Y196005D01*
X382000Y195930D01*
Y199500D01*
D02*
G37*
G36*
X182000D02*
X178430D01*
X178506Y198930D01*
X178919Y197932D01*
X179576Y197076D01*
X180432Y196419D01*
X181430Y196005D01*
X182000Y195930D01*
Y199500D01*
D02*
G37*
G36*
X415600Y204120D02*
X409400D01*
X409010Y204042D01*
X408679Y203821D01*
X408458Y203490D01*
X408380Y203100D01*
Y196900D01*
X408458Y196510D01*
X408679Y196179D01*
X409010Y195958D01*
X409400Y195880D01*
X415600D01*
X415990Y195958D01*
X416321Y196179D01*
X416542Y196510D01*
X416620Y196900D01*
Y203100D01*
X416542Y203490D01*
X416321Y203821D01*
X415990Y204042D01*
X415600Y204120D01*
D02*
G37*
G36*
X392500Y204135D02*
X391430Y203994D01*
X390432Y203581D01*
X389576Y202924D01*
X388919Y202068D01*
X388506Y201070D01*
X388365Y200000D01*
X388506Y198930D01*
X388919Y197932D01*
X389576Y197076D01*
X390432Y196419D01*
X391430Y196005D01*
X392500Y195865D01*
X393570Y196005D01*
X394568Y196419D01*
X395424Y197076D01*
X396081Y197932D01*
X396495Y198930D01*
X396635Y200000D01*
X396495Y201070D01*
X396081Y202068D01*
X395424Y202924D01*
X394568Y203581D01*
X393570Y203994D01*
X392500Y204135D01*
D02*
G37*
G36*
X251500Y211872D02*
Y208000D01*
X255372D01*
X255287Y208649D01*
X254843Y209719D01*
X254138Y210638D01*
X253219Y211343D01*
X252149Y211787D01*
X251500Y211872D01*
D02*
G37*
%LPD*%
G36*
X278842Y56935D02*
X278608Y56461D01*
X278110Y56527D01*
Y51953D01*
Y47379D01*
X278811Y47471D01*
X279930Y47935D01*
X280891Y48672D01*
X281628Y49633D01*
X282092Y50752D01*
X282216Y51693D01*
X282716Y51661D01*
Y49500D01*
X282852Y48817D01*
X283238Y48238D01*
X286138Y45338D01*
X286717Y44952D01*
X287400Y44816D01*
X287400Y44816D01*
X289347D01*
X289446Y44316D01*
X289070Y44160D01*
X288109Y43423D01*
X287372Y42462D01*
X286908Y41343D01*
X286750Y40142D01*
X286908Y38941D01*
X287130Y38405D01*
X285301Y36576D01*
X282230D01*
Y43742D01*
X282152Y44132D01*
X281931Y44463D01*
X281600Y44684D01*
X281210Y44761D01*
X277270D01*
X264892Y57140D01*
X264265Y57621D01*
X263535Y57923D01*
X263605Y58416D01*
X277361D01*
X278842Y56935D01*
D02*
G37*
%LPC*%
G36*
X277110Y51453D02*
X273036D01*
X273129Y50752D01*
X273592Y49633D01*
X274329Y48672D01*
X275290Y47935D01*
X276409Y47471D01*
X277110Y47379D01*
Y51453D01*
D02*
G37*
G36*
Y56527D02*
X276409Y56434D01*
X275290Y55971D01*
X274329Y55234D01*
X273592Y54273D01*
X273129Y53154D01*
X273036Y52453D01*
X277110D01*
Y56527D01*
D02*
G37*
%LPD*%
D12*
X366500Y212500D02*
X377000D01*
X216500Y193000D02*
X230000D01*
X202500Y247854D02*
X215000D01*
X185000Y247500D02*
X193500D01*
X193854Y247854D01*
X202500D01*
X215000Y217146D02*
X227500D01*
X311000Y167500D02*
X329000D01*
X232000Y137500D02*
X251000D01*
X305169Y51953D02*
X318949D01*
X291390D02*
X305169D01*
X329000Y197500D02*
X343500D01*
X311000D02*
X329000D01*
X321600Y120100D02*
X329000Y127500D01*
X70000Y120100D02*
X321600D01*
X60400Y129700D02*
X70000Y120100D01*
X45420Y129700D02*
X60400D01*
X40000Y124280D02*
X45420Y129700D01*
X182500Y135000D02*
X192500Y125000D01*
X197500D01*
X51811Y110500D02*
X56711Y115400D01*
X319600D01*
X347500Y87500D01*
X255000Y110000D02*
X265700Y99300D01*
X311300D01*
X312500Y100500D01*
Y105000D01*
X329000Y127500D02*
X345000Y143500D01*
Y147500D01*
X200000Y202000D02*
Y206854D01*
Y202000D02*
X219000Y183000D01*
X245500D01*
X251000Y177500D01*
X242000Y35000D02*
X244708Y32292D01*
X297319D01*
X305169Y40142D01*
X304500Y68000D02*
X309100Y63400D01*
X347000D01*
X349100Y65500D01*
Y71500D01*
X346200Y74400D02*
X349100Y71500D01*
X328600Y74400D02*
X346200D01*
X308700Y94300D02*
X328600Y74400D01*
X254500Y15000D02*
Y22500D01*
X182000Y55000D02*
X192000Y65000D01*
X212000D01*
X216800Y60200D01*
X278100D01*
X284500Y53800D01*
Y49500D02*
Y53800D01*
Y49500D02*
X287400Y46600D01*
X312491D01*
X318949Y40142D01*
X286040Y34792D02*
X291390Y40142D01*
X262908Y34792D02*
X286040D01*
X247900Y49800D02*
X262908Y34792D01*
X239500Y49800D02*
X247900D01*
X237200Y47500D02*
X239500Y49800D01*
X237200Y29800D02*
Y47500D01*
Y29800D02*
X242000Y25000D01*
X402500Y124900D02*
Y200000D01*
X354200Y76600D02*
X402500Y124900D01*
X329800Y76600D02*
X354200D01*
X312100Y94300D02*
X329800Y76600D01*
X254000Y98000D02*
X257700Y94300D01*
X230000Y193000D02*
X243400Y206400D01*
Y240300D01*
X245800Y242700D01*
X255800D01*
X311000Y187500D01*
X238000Y180500D02*
X251000Y167500D01*
X213500Y180500D02*
X238000D01*
X187900Y206100D02*
X213500Y180500D01*
X187900Y206100D02*
Y235500D01*
X195400Y243000D01*
X231200D01*
X248100Y259900D01*
X359100D01*
X366500Y252500D01*
X329000Y167500D02*
X341500Y180000D01*
X342500D01*
X244708Y32292D02*
X254500Y22500D01*
X257700Y94300D02*
X308700D01*
X312100D01*
D14*
X197000Y35000D02*
X212000D01*
X329000Y217500D02*
X343500D01*
X197000Y15000D02*
X212000D01*
X182000D02*
X197000D01*
X311000Y207500D02*
X352100D01*
X353500Y206100D01*
X366400D01*
X372500Y200000D01*
X395000Y212500D02*
X417000D01*
X382500Y200000D02*
X395000Y212500D01*
X382500Y200000D02*
Y206700D01*
X382800Y207000D01*
Y219500D01*
X378400Y223900D02*
X382800Y219500D01*
X349900Y223900D02*
X378400D01*
X343500Y217500D02*
X349900Y223900D01*
X62300Y251500D02*
X71300Y242500D01*
X33400Y117100D02*
X40000Y110500D01*
X33400Y117100D02*
Y142100D01*
X36000Y144700D01*
X45170D01*
X51811Y138059D01*
X216500Y163000D02*
Y173000D01*
X205600Y152100D02*
Y156200D01*
X254500Y55000D02*
X262752D01*
X277610Y40142D01*
X327600Y68000D02*
X344500D01*
X321400Y74200D02*
X327600Y68000D01*
X285200Y74200D02*
X321400D01*
X278500Y67500D02*
X285200Y74200D01*
X242000Y75000D02*
X271000D01*
X278500Y67500D01*
X182500Y95000D02*
X192500Y105000D01*
X197500D01*
X215000Y127500D02*
X232000D01*
X198000Y144500D02*
X215000Y127500D01*
X182500Y200000D02*
X186713D01*
X210000Y176713D01*
X212787D01*
X216500Y173000D01*
X311000Y227500D02*
X321000Y217500D01*
X329000D01*
X317500Y94300D02*
Y105000D01*
Y94300D02*
X330100Y81700D01*
X350000D01*
X353300Y85000D01*
Y111700D01*
X348500Y116500D02*
X353300Y111700D01*
X20000Y52500D02*
X23000Y49500D01*
X37500D01*
X51811Y138059D02*
X78252Y164500D01*
X198000D01*
X202500Y217146D02*
X208546Y211100D01*
X232700D01*
X237100Y215500D01*
Y242800D01*
X250150Y255850D01*
X262650D01*
X20000Y72500D02*
X23000Y69500D01*
X37500D01*
X198000Y144500D02*
X205600Y152100D01*
X262650Y255850D02*
X311000Y207500D01*
X57500Y242500D02*
X85500Y214500D01*
X134500D01*
X152500Y232500D01*
X35500Y222500D02*
X46500Y233500D01*
X32500Y222500D02*
X35500D01*
X23500Y218500D02*
X25663D01*
X20000Y215000D02*
X23500Y218500D01*
X46500Y233500D02*
Y243000D01*
X55000Y251500D01*
X62300D01*
X71300Y20000D02*
X80800Y10500D01*
X177500D01*
X182000Y15000D01*
X205600Y152100D02*
X216500Y163000D01*
D16*
X20000Y171839D02*
X40000Y151839D01*
X20000Y171839D02*
Y175000D01*
X46500Y185000D02*
X182500D01*
X42500Y181000D02*
X46500Y185000D01*
X30000Y181000D02*
X42500D01*
X20000Y191000D02*
X30000Y181000D01*
X20000Y191000D02*
Y215000D01*
D17*
X40000Y151839D02*
D03*
D18*
X51811D02*
D03*
X40000Y138059D02*
D03*
X51811D02*
D03*
X40000Y124280D02*
D03*
X51811D02*
D03*
X40000Y110500D02*
D03*
X51811D02*
D03*
X277610Y51953D02*
D03*
X291390Y40142D02*
D03*
Y51953D02*
D03*
X305169Y40142D02*
D03*
Y51953D02*
D03*
X318949Y40142D02*
D03*
Y51953D02*
D03*
D19*
X182500Y200000D02*
D03*
Y220000D02*
D03*
X197500Y105000D02*
D03*
Y125000D02*
D03*
X20000Y52500D02*
D03*
Y72500D02*
D03*
X342500Y160000D02*
D03*
Y180000D02*
D03*
X216500Y173000D02*
D03*
Y193000D02*
D03*
X197000Y35000D02*
D03*
Y15000D02*
D03*
X34000Y173500D02*
D03*
X54000D02*
D03*
X198000Y144500D02*
D03*
Y164500D02*
D03*
X348500Y116500D02*
D03*
X328500D02*
D03*
X345000Y127500D02*
D03*
Y147500D02*
D03*
X343500Y217500D02*
D03*
Y197500D02*
D03*
X329000Y217500D02*
D03*
Y197500D02*
D03*
X278500Y67500D02*
D03*
X258500D02*
D03*
X345000Y237500D02*
D03*
X325000D02*
D03*
X402500Y200000D02*
D03*
X392500D02*
D03*
X382500D02*
D03*
X372500D02*
D03*
X362500D02*
D03*
D20*
X192500Y232500D02*
D03*
X152500D02*
D03*
X185000Y247500D02*
D03*
X145000D02*
D03*
X230000Y193000D02*
D03*
Y153000D02*
D03*
X20000Y215000D02*
D03*
Y175000D02*
D03*
X182000Y15000D02*
D03*
Y55000D02*
D03*
X254500D02*
D03*
Y15000D02*
D03*
X251500Y83000D02*
D03*
X291500D02*
D03*
X182500Y145000D02*
D03*
Y185000D02*
D03*
Y135000D02*
D03*
Y95000D02*
D03*
X329000Y167500D02*
D03*
Y127500D02*
D03*
X347500Y87500D02*
D03*
X307500D02*
D03*
X355000Y212500D02*
D03*
Y252500D02*
D03*
X295000Y110000D02*
D03*
X255000D02*
D03*
X366500Y252500D02*
D03*
Y212500D02*
D03*
X417000D02*
D03*
X377000D02*
D03*
X214000Y98000D02*
D03*
X254000D02*
D03*
X344500Y68000D02*
D03*
X304500D02*
D03*
D21*
X251000Y237500D02*
D03*
D22*
Y227500D02*
D03*
Y217500D02*
D03*
Y207500D02*
D03*
Y197500D02*
D03*
Y187500D02*
D03*
Y177500D02*
D03*
Y167500D02*
D03*
Y157500D02*
D03*
Y147500D02*
D03*
Y137500D02*
D03*
Y127500D02*
D03*
X311000D02*
D03*
Y137500D02*
D03*
Y147500D02*
D03*
Y157500D02*
D03*
Y167500D02*
D03*
Y177500D02*
D03*
Y187500D02*
D03*
Y197500D02*
D03*
Y207500D02*
D03*
Y217500D02*
D03*
Y227500D02*
D03*
Y237500D02*
D03*
D23*
X71300Y20000D02*
D03*
Y242500D02*
D03*
D24*
X57500Y20000D02*
D03*
Y242500D02*
D03*
D25*
X37500Y212000D02*
D03*
D26*
Y192000D02*
D03*
Y49500D02*
D03*
Y69500D02*
D03*
D27*
X202500Y217146D02*
D03*
X215000D02*
D03*
X227500Y247854D02*
D03*
X232000Y137500D02*
D03*
X200000Y176146D02*
D03*
D28*
X202500Y247854D02*
D03*
X215000D02*
D03*
X227500Y217146D02*
D03*
X232000Y127500D02*
D03*
X200000Y206854D02*
D03*
X212000Y75000D02*
D03*
Y65000D02*
D03*
Y55000D02*
D03*
Y45000D02*
D03*
Y35000D02*
D03*
Y25000D02*
D03*
Y15000D02*
D03*
X242000Y75000D02*
D03*
Y65000D02*
D03*
Y55000D02*
D03*
Y45000D02*
D03*
Y35000D02*
D03*
Y25000D02*
D03*
D29*
X277610Y40142D02*
D03*
D30*
X317500Y105000D02*
D03*
X307500D02*
D03*
D31*
X312500D02*
D03*
D32*
X242000Y15000D02*
D03*
D33*
X412500Y200000D02*
D03*
D34*
X205600Y156200D02*
D03*
X240000Y194000D02*
D03*
D35*
X28548Y221385D02*
X29764D01*
X30472Y222094D01*
X32094D02*
X32500Y222500D01*
X30472Y222094D02*
X32094D01*
X25663Y218500D02*
X28548Y221385D01*
M02*
