M48
;Layer_Color=9474304
;FILE_FORMAT=2:5
INCH,TZ
;TYPE=PLATED
T1F00S00C0.03200
T2F00S00C0.04200
T3F00S00C0.06200
T4F00S00C0.12000
T5F00S00C0.16950
%
T01
X182000Y15000
X197000
X212000
Y25000
Y35000
Y45000
Y55000
X182000
X197000Y35000
X242000
Y45000
Y55000
X254500
Y15000
X242000
Y25000
X71300Y20000
X57500
X20000Y52500
Y72500
Y175000
X34000Y173500
X54000
X20000Y215000
X182500Y220000
Y200000
Y185000
X200000Y176146
X198000Y164500
X205600Y156200
X198000Y144500
X182500Y145000
Y135000
X197500Y125000
Y105000
X214000Y98000
X212000Y75000
Y65000
X242000
Y75000
X251500Y83000
X254000Y98000
X255000Y110000
X295000
X307500Y105000
Y87500
X291500Y83000
X304500Y68000
X278500Y67500
X258500
X232000Y127500
Y137500
X230000Y153000
X216500Y173000
Y193000
X230000
X240000Y194000
X227500Y217146
X215000
X202500
X200000Y206854
X182500Y95000
X312500Y105000
X317500
X328500Y116500
X329000Y127500
X345000
X348500Y116500
X347500Y87500
X344500Y68000
X345000Y147500
X342500Y160000
Y180000
X343500Y197500
X329000
Y217500
X343500
X355000Y212500
X366500
X377000
X417000
X329000Y167500
X325000Y237500
X345000
X355000Y252500
X366500
X227500Y247854
X215000
X202500
X185000Y247500
X192500Y232500
X152500
X145000Y247500
X71300Y242500
X57500
T02
X318949Y40142
Y51953
X305169
Y40142
X291390
Y51953
X277610
Y40142
X51811Y110500
X40000
Y124280
X51811
Y138059
X40000
Y151839
X51811
X251000Y147500
Y157500
Y167500
Y177500
Y187500
Y197500
Y207500
Y217500
X311000
Y207500
Y197500
Y187500
Y177500
Y167500
Y157500
Y147500
Y137500
Y127500
X251000
Y137500
X362500Y200000
X372500
X382500
X392500
X402500
X412500
X311000Y227500
Y237500
X251000
Y227500
T03
X37500Y49500
Y69500
Y192000
Y212000
T04
X284500Y9000
X312059
X115200Y28800
X8858Y117390
Y144949
X115200Y232800
T05
X402500Y22500
X22500
X402500Y240000
X22500
M30
